<svg width="24" height="25" viewBox="0 0 24 25" fill="none" xmlns="http://www.w3.org/2000/svg">
<rect width="24" height="24" transform="translate(0 0.5)" fill="white"/>
<path d="M12.5 4.5C12.5 4.22386 12.2761 4 12 4C11.7239 4 11.5 4.22386 11.5 4.5H12.5ZM11.6464 16.8536C11.8417 17.0488 12.1583 17.0488 12.3536 16.8536L15.5355 13.6716C15.7308 13.4763 15.7308 13.1597 15.5355 12.9645C15.3403 12.7692 15.0237 12.7692 14.8284 12.9645L12 15.7929L9.17157 12.9645C8.97631 12.7692 8.65973 12.7692 8.46447 12.9645C8.2692 13.1597 8.2692 13.4763 8.46447 13.6716L11.6464 16.8536ZM11.5 4.5V16.5H12.5V4.5H11.5Z" fill="#006B51"/>
<path d="M4 20.5H20" stroke="#006B51" stroke-linecap="round"/>
</svg>
