<svg width="210" height="90" viewBox="0 0 210 90" fill="none" xmlns="http://www.w3.org/2000/svg">
<g clip-path="url(#clip0_916_5426)">
<path fill-rule="evenodd" clip-rule="evenodd" d="M109.324 54.5671H115.654C116.144 54.5671 116.659 54.4431 117.199 54.1949C117.739 53.9466 118.058 53.6404 118.156 53.2764H119.284L117.861 59.5324C117.632 60.625 117.191 61.4027 116.537 61.8662C115.718 62.4621 114.46 62.7599 112.759 62.7599H101.72C98.416 62.7599 96.0452 62.1144 94.6056 60.8234C93.3304 59.665 92.6924 57.9105 92.6924 55.5604C92.6924 54.038 92.9542 52.1839 93.477 49.9992L96.1757 38.0332C96.862 34.9215 98.1872 32.5219 100.15 30.8334C101.948 29.278 104.009 28.5 106.332 28.5H123.013C122.915 29.0958 122.751 29.9314 122.522 31.0074C122.293 32.0831 122.097 32.9191 121.933 33.5149C121.672 34.541 121.344 35.2528 120.952 35.6498C120.428 36.1795 119.579 36.4445 118.401 36.4445H113.347C112.171 36.4445 111.32 36.7255 110.796 37.2885C110.273 37.8512 109.896 38.6951 109.668 39.8206L106.97 51.5883C106.871 51.9522 106.822 52.2832 106.822 52.5814C106.822 53.9054 107.656 54.5671 109.324 54.5671Z" fill="#006B51"/>
<path fill-rule="evenodd" clip-rule="evenodd" d="M137.897 62.7599H127.495C126.809 62.7599 126.269 62.5944 125.877 62.2634C125.484 61.9324 125.288 61.5351 125.288 61.0717C125.288 60.6747 125.369 60.3104 125.533 59.9794L136.719 32.1244C136.851 31.8596 136.916 31.5619 136.916 31.2309C136.916 30.8334 136.768 30.4697 136.474 30.1384C136.179 29.8075 135.852 29.6419 135.493 29.6419L135.738 28.5H148.985C149.509 28.5 149.974 28.649 150.384 28.9467C150.792 29.2447 150.997 29.6917 150.997 30.2875L151.341 42.2538L155.658 31.7769C155.788 31.5122 155.853 31.1976 155.853 30.8334C155.853 30.0392 155.445 29.6419 154.627 29.6419L154.921 28.5H168.414C168.97 28.5 169.444 28.7482 169.837 29.2447C170.229 29.7412 170.426 30.3204 170.426 30.9827L172.045 60.0787C172.045 60.5422 172.274 60.9147 172.731 61.1959C173.19 61.4774 173.663 61.6179 174.154 61.6179L173.909 62.7599H160.465C160.041 62.7599 159.632 62.5614 159.239 62.1642C158.847 61.7669 158.65 61.3367 158.65 60.8732L158.749 47.6656L153.057 62.7599H141.43L141.136 47.7651L136.523 59.483C136.523 59.6152 136.523 59.8473 136.523 60.1782C136.523 60.6415 136.686 60.9974 137.014 61.2457C137.341 61.4939 137.734 61.6179 138.191 61.6179L137.897 62.7599Z" fill="#006B51"/>
<path fill-rule="evenodd" clip-rule="evenodd" d="M186.351 28.2415H206.418C206.942 28.2415 207.449 28.1337 207.939 27.9187C208.43 27.7034 208.741 27.3975 208.871 27H210L208.038 34.5967C207.711 35.6563 206.745 36.1859 205.143 36.1859H202.248L196.753 59.8202C196.688 60.1512 196.835 60.4904 197.194 60.8379C197.555 61.1856 197.915 61.3594 198.274 61.3594L197.931 62.5013H184.292C183.244 62.5013 182.721 61.9718 182.721 60.9126C182.721 60.7804 182.754 60.5154 182.819 60.1182L188.364 36.1859H184.978C184.455 36.1859 184.022 36.31 183.678 36.5582C183.334 36.8064 183.098 37.1292 182.966 37.5264H181.74L183.703 29.5819C183.833 29.1184 184.095 28.7795 184.487 28.5639C184.88 28.349 185.501 28.2415 186.351 28.2415Z" fill="#006B51"/>
<path fill-rule="evenodd" clip-rule="evenodd" d="M43.3601 15C67.3033 15 86.7205 28.5856 86.7205 45.3378C86.7205 62.0899 67.3033 75.6755 43.3601 75.6755C19.4171 75.6755 0 62.0899 0 45.3378C0 28.5856 19.4171 15 43.3601 15ZM38.3674 70.9659L42.7956 59.2252L55.4791 70.9967L71.9441 27.343L28.7404 26.8047L28.9941 26.9073L14.2967 26.7242C21.4509 21.3203 31.6769 17.9357 43.032 17.9357C64.658 17.9357 82.196 30.2066 82.196 45.3378C82.196 60.4689 64.658 72.7399 43.032 72.7399C21.4063 72.7399 3.86816 60.4689 3.86816 45.3378C3.86816 38.491 7.4598 32.2294 13.3957 27.426L26.9649 32.9186L18.8366 52.8394L38.3674 70.9659ZM34.0344 27.8799L70.2362 28.5114L55.048 68.8331L37.3634 52.7256L45.5815 32.0909L34.0344 27.8799Z" fill="#006B51"/>
</g>
<defs>
<clipPath id="clip0_916_5426">
<rect width="210" height="90" fill="white"/>
</clipPath>
</defs>
</svg>
