<svg width="260" height="210" viewBox="0 0 260 210" fill="none" xmlns="http://www.w3.org/2000/svg">
<path d="M45.6489 210C32.4173 210 21.5013 205.748 12.9008 197.243C4.30025 188.738 0 178.598 0 166.822C0 160.935 0.992366 155.047 2.9771 149.159C4.96183 142.617 8.60051 133.458 13.8931 121.682L70.458 0H109.16L71.4504 131.495C84.6819 139.346 91.2977 151.121 91.2977 166.822C91.2977 178.598 86.9975 188.738 78.3969 197.243C69.7964 205.748 58.8804 210 45.6489 210ZM196.489 210C183.257 210 172.341 205.748 163.74 197.243C155.14 188.738 150.84 178.598 150.84 166.822C150.84 160.935 151.832 155.047 153.817 149.159C155.802 142.617 159.44 133.458 164.733 121.682L221.298 0H260L222.29 131.495C235.522 139.346 242.137 151.121 242.137 166.822C242.137 178.598 237.837 188.738 229.237 197.243C220.636 205.748 209.72 210 196.489 210Z" fill="#F7F7F7"/>
</svg>
