<svg width="32" height="32" viewBox="0 0 32 32" fill="none" xmlns="http://www.w3.org/2000/svg">
<path d="M10.6667 26.6667H5.33333C4.97971 26.6667 4.64057 26.5262 4.39052 26.2761C4.14048 26.0261 4 25.687 4 25.3333V5.33333C4 4.97971 4.14048 4.64057 4.39052 4.39052C4.64057 4.14048 4.97971 4 5.33333 4H16.7867C17.1365 4.00147 17.4717 4.14034 17.72 4.38667L22.28 8.94667C22.5263 9.19501 22.6652 9.53021 22.6667 9.88V10.6667" stroke="#CCCCCC" stroke-linecap="round" stroke-linejoin="round"/>
<path d="M27.9987 28L22.6654 23.4667M18.6654 25.3333C19.7202 25.3333 20.7513 25.0205 21.6284 24.4345C22.5055 23.8485 23.1891 23.0155 23.5927 22.041C23.9964 21.0664 24.102 19.9941 23.8962 18.9595C23.6904 17.925 23.1825 16.9746 22.4366 16.2288C21.6907 15.4829 20.7404 14.9749 19.7058 14.7691C18.6713 14.5634 17.5989 14.669 16.6244 15.0726C15.6498 15.4763 14.8169 16.1599 14.2309 17.037C13.6448 17.914 13.332 18.9452 13.332 20C13.332 21.4145 13.8939 22.771 14.8941 23.7712C15.8943 24.7714 17.2509 25.3333 18.6654 25.3333Z" stroke="#CCCCCC" stroke-linecap="round" stroke-linejoin="round"/>
</svg>
