<svg width="101" height="133" viewBox="0 0 101 133" fill="none" xmlns="http://www.w3.org/2000/svg">
<path d="M50.5 1L50.5 61" stroke="#006B51" stroke-linecap="round"/>
<rect x="1" y="33.5" width="99" height="99" rx="49.5" fill="#F7F7F7"/>
<path d="M16.9 78H26.78V76.4H20.4L24.86 71.86C25.4067 71.3 25.8533 70.6667 26.2 69.96C26.5467 69.2533 26.72 68.54 26.72 67.82C26.72 67.3933 26.6333 66.9467 26.46 66.48C26.2867 66.0133 26.02 65.58 25.66 65.18C25.3 64.7667 24.84 64.4333 24.28 64.18C23.72 63.9133 23.0533 63.78 22.28 63.78C21.32 63.78 20.4933 63.9933 19.8 64.42C19.12 64.8333 18.6 65.42 18.24 66.18C17.88 66.9267 17.7 67.8 17.7 68.8H19.4C19.4 68.0933 19.5133 67.4867 19.74 66.98C19.9667 66.46 20.2933 66.0667 20.72 65.8C21.16 65.52 21.68 65.38 22.28 65.38C22.7067 65.38 23.0867 65.4533 23.42 65.6C23.7533 65.7467 24.0333 65.94 24.26 66.18C24.5 66.42 24.68 66.6867 24.8 66.98C24.92 67.2733 24.98 67.5733 24.98 67.88C24.98 68.2533 24.92 68.6133 24.8 68.96C24.6933 69.2933 24.5267 69.6267 24.3 69.96C24.0867 70.28 23.8267 70.6067 23.52 70.94L16.9 78ZM30.3867 71C30.3867 70.1867 30.4667 69.44 30.6267 68.76C30.7867 68.0667 31.0201 67.4733 31.3267 66.98C31.6334 66.4733 32.0001 66.0867 32.4267 65.82C32.8667 65.54 33.3534 65.4 33.8867 65.4C34.4334 65.4 34.9201 65.54 35.3467 65.82C35.7734 66.0867 36.1401 66.4733 36.4467 66.98C36.7534 67.4733 36.9867 68.0667 37.1467 68.76C37.3067 69.44 37.3867 70.1867 37.3867 71C37.3867 71.8133 37.3067 72.5667 37.1467 73.26C36.9867 73.94 36.7534 74.5333 36.4467 75.04C36.1401 75.5333 35.7734 75.92 35.3467 76.2C34.9201 76.4667 34.4334 76.6 33.8867 76.6C33.3534 76.6 32.8667 76.4667 32.4267 76.2C32.0001 75.92 31.6334 75.5333 31.3267 75.04C31.0201 74.5333 30.7867 73.94 30.6267 73.26C30.4667 72.5667 30.3867 71.8133 30.3867 71ZM28.6867 71C28.6867 72.4 28.9067 73.64 29.3467 74.72C29.7867 75.8 30.3934 76.6533 31.1667 77.28C31.9534 77.8933 32.8601 78.2 33.8867 78.2C34.9134 78.2 35.8134 77.8933 36.5867 77.28C37.3734 76.6533 37.9867 75.8 38.4267 74.72C38.8667 73.64 39.0867 72.4 39.0867 71C39.0867 69.6 38.8667 68.36 38.4267 67.28C37.9867 66.2 37.3734 65.3533 36.5867 64.74C35.8134 64.1133 34.9134 63.8 33.8867 63.8C32.8601 63.8 31.9534 64.1133 31.1667 64.74C30.3934 65.3533 29.7867 66.2 29.3467 67.28C28.9067 68.36 28.6867 69.6 28.6867 71ZM42.3789 71C42.3789 70.1867 42.4589 69.44 42.6189 68.76C42.7789 68.0667 43.0122 67.4733 43.3189 66.98C43.6256 66.4733 43.9922 66.0867 44.4189 65.82C44.8589 65.54 45.3456 65.4 45.8789 65.4C46.4256 65.4 46.9122 65.54 47.3389 65.82C47.7656 66.0867 48.1322 66.4733 48.4389 66.98C48.7456 67.4733 48.9789 68.0667 49.1389 68.76C49.2989 69.44 49.3789 70.1867 49.3789 71C49.3789 71.8133 49.2989 72.5667 49.1389 73.26C48.9789 73.94 48.7456 74.5333 48.4389 75.04C48.1322 75.5333 47.7656 75.92 47.3389 76.2C46.9122 76.4667 46.4256 76.6 45.8789 76.6C45.3456 76.6 44.8589 76.4667 44.4189 76.2C43.9922 75.92 43.6256 75.5333 43.3189 75.04C43.0122 74.5333 42.7789 73.94 42.6189 73.26C42.4589 72.5667 42.3789 71.8133 42.3789 71ZM40.6789 71C40.6789 72.4 40.8989 73.64 41.3389 74.72C41.7789 75.8 42.3856 76.6533 43.1589 77.28C43.9456 77.8933 44.8522 78.2 45.8789 78.2C46.9056 78.2 47.8056 77.8933 48.5789 77.28C49.3656 76.6533 49.9789 75.8 50.4189 74.72C50.8589 73.64 51.0789 72.4 51.0789 71C51.0789 69.6 50.8589 68.36 50.4189 67.28C49.9789 66.2 49.3656 65.3533 48.5789 64.74C47.8056 64.1133 46.9056 63.8 45.8789 63.8C44.8522 63.8 43.9456 64.1133 43.1589 64.74C42.3856 65.3533 41.7789 66.2 41.3389 67.28C40.8989 68.36 40.6789 69.6 40.6789 71ZM52.2711 78H62.1511V76.4H55.7711L60.2311 71.86C60.7778 71.3 61.2244 70.6667 61.5711 69.96C61.9178 69.2533 62.0911 68.54 62.0911 67.82C62.0911 67.3933 62.0044 66.9467 61.8311 66.48C61.6578 66.0133 61.3911 65.58 61.0311 65.18C60.6711 64.7667 60.2111 64.4333 59.6511 64.18C59.0911 63.9133 58.4244 63.78 57.6511 63.78C56.6911 63.78 55.8644 63.9933 55.1711 64.42C54.4911 64.8333 53.9711 65.42 53.6111 66.18C53.2511 66.9267 53.0711 67.8 53.0711 68.8H54.7711C54.7711 68.0933 54.8844 67.4867 55.1111 66.98C55.3378 66.46 55.6644 66.0667 56.0911 65.8C56.5311 65.52 57.0511 65.38 57.6511 65.38C58.0778 65.38 58.4578 65.4533 58.7911 65.6C59.1244 65.7467 59.4044 65.94 59.6311 66.18C59.8711 66.42 60.0511 66.6867 60.1711 66.98C60.2911 67.2733 60.3511 67.5733 60.3511 67.88C60.3511 68.2533 60.2911 68.6133 60.1711 68.96C60.0644 69.2933 59.8978 69.6267 59.6711 69.96C59.4578 70.28 59.1978 70.6067 58.8911 70.94L52.2711 78ZM70.6539 74H82.6539V72.5H70.6539V74Z" fill="#006B51"/>
<path d="M27.4 102H37.28V100.4H30.9L35.36 95.86C35.9067 95.3 36.3533 94.6667 36.7 93.96C37.0467 93.2533 37.22 92.54 37.22 91.82C37.22 91.3933 37.1333 90.9467 36.96 90.48C36.7867 90.0133 36.52 89.58 36.16 89.18C35.8 88.7667 35.34 88.4333 34.78 88.18C34.22 87.9133 33.5533 87.78 32.78 87.78C31.82 87.78 30.9933 87.9933 30.3 88.42C29.62 88.8333 29.1 89.42 28.74 90.18C28.38 90.9267 28.2 91.8 28.2 92.8H29.9C29.9 92.0933 30.0133 91.4867 30.24 90.98C30.4667 90.46 30.7933 90.0667 31.22 89.8C31.66 89.52 32.18 89.38 32.78 89.38C33.2067 89.38 33.5867 89.4533 33.92 89.6C34.2533 89.7467 34.5333 89.94 34.76 90.18C35 90.42 35.18 90.6867 35.3 90.98C35.42 91.2733 35.48 91.5733 35.48 91.88C35.48 92.2533 35.42 92.6133 35.3 92.96C35.1933 93.2933 35.0267 93.6267 34.8 93.96C34.5867 94.28 34.3267 94.6067 34.02 94.94L27.4 102ZM40.8867 95C40.8867 94.1867 40.9667 93.44 41.1267 92.76C41.2867 92.0667 41.5201 91.4733 41.8267 90.98C42.1334 90.4733 42.5001 90.0867 42.9267 89.82C43.3667 89.54 43.8534 89.4 44.3867 89.4C44.9334 89.4 45.4201 89.54 45.8467 89.82C46.2734 90.0867 46.6401 90.4733 46.9467 90.98C47.2534 91.4733 47.4867 92.0667 47.6467 92.76C47.8067 93.44 47.8867 94.1867 47.8867 95C47.8867 95.8133 47.8067 96.5667 47.6467 97.26C47.4867 97.94 47.2534 98.5333 46.9467 99.04C46.6401 99.5333 46.2734 99.92 45.8467 100.2C45.4201 100.467 44.9334 100.6 44.3867 100.6C43.8534 100.6 43.3667 100.467 42.9267 100.2C42.5001 99.92 42.1334 99.5333 41.8267 99.04C41.5201 98.5333 41.2867 97.94 41.1267 97.26C40.9667 96.5667 40.8867 95.8133 40.8867 95ZM39.1867 95C39.1867 96.4 39.4067 97.64 39.8467 98.72C40.2867 99.8 40.8934 100.653 41.6667 101.28C42.4534 101.893 43.3601 102.2 44.3867 102.2C45.4134 102.2 46.3134 101.893 47.0867 101.28C47.8734 100.653 48.4867 99.8 48.9267 98.72C49.3667 97.64 49.5867 96.4 49.5867 95C49.5867 93.6 49.3667 92.36 48.9267 91.28C48.4867 90.2 47.8734 89.3533 47.0867 88.74C46.3134 88.1133 45.4134 87.8 44.3867 87.8C43.3601 87.8 42.4534 88.1133 41.6667 88.74C40.8934 89.3533 40.2867 90.2 39.8467 91.28C39.4067 92.36 39.1867 93.6 39.1867 95ZM52.8789 95C52.8789 94.1867 52.9589 93.44 53.1189 92.76C53.2789 92.0667 53.5122 91.4733 53.8189 90.98C54.1256 90.4733 54.4922 90.0867 54.9189 89.82C55.3589 89.54 55.8456 89.4 56.3789 89.4C56.9256 89.4 57.4122 89.54 57.8389 89.82C58.2656 90.0867 58.6322 90.4733 58.9389 90.98C59.2456 91.4733 59.4789 92.0667 59.6389 92.76C59.7989 93.44 59.8789 94.1867 59.8789 95C59.8789 95.8133 59.7989 96.5667 59.6389 97.26C59.4789 97.94 59.2456 98.5333 58.9389 99.04C58.6322 99.5333 58.2656 99.92 57.8389 100.2C57.4122 100.467 56.9256 100.6 56.3789 100.6C55.8456 100.6 55.3589 100.467 54.9189 100.2C54.4922 99.92 54.1256 99.5333 53.8189 99.04C53.5122 98.5333 53.2789 97.94 53.1189 97.26C52.9589 96.5667 52.8789 95.8133 52.8789 95ZM51.1789 95C51.1789 96.4 51.3989 97.64 51.8389 98.72C52.2789 99.8 52.8856 100.653 53.6589 101.28C54.4456 101.893 55.3522 102.2 56.3789 102.2C57.4056 102.2 58.3056 101.893 59.0789 101.28C59.8656 100.653 60.4789 99.8 60.9189 98.72C61.3589 97.64 61.5789 96.4 61.5789 95C61.5789 93.6 61.3589 92.36 60.9189 91.28C60.4789 90.2 59.8656 89.3533 59.0789 88.74C58.3056 88.1133 57.4056 87.8 56.3789 87.8C55.3522 87.8 54.4456 88.1133 53.6589 88.74C52.8856 89.3533 52.2789 90.2 51.8389 91.28C51.3989 92.36 51.1789 93.6 51.1789 95ZM63.9711 91.38C63.9711 91.9267 64.0644 92.42 64.2511 92.86C64.4378 93.2867 64.6978 93.6533 65.0311 93.96C65.3778 94.2667 65.7844 94.5 66.2511 94.66C66.7311 94.82 67.2578 94.9 67.8311 94.9C68.4044 94.9 68.9244 94.82 69.3911 94.66C69.8711 94.5 70.2778 94.2667 70.6111 93.96C70.9578 93.6533 71.2244 93.2867 71.4111 92.86C71.5978 92.42 71.6911 91.9267 71.6911 91.38C71.6911 90.7133 71.5178 90.1133 71.1711 89.58C70.8378 89.0333 70.3778 88.6 69.7911 88.28C69.2178 87.96 68.5644 87.8 67.8311 87.8C67.0978 87.8 66.4378 87.96 65.8511 88.28C65.2778 88.6 64.8178 89.0333 64.4711 89.58C64.1378 90.1133 63.9711 90.7133 63.9711 91.38ZM65.5911 91.58C65.5911 91.14 65.6844 90.7467 65.8711 90.4C66.0711 90.0533 66.3378 89.7867 66.6711 89.6C67.0178 89.4 67.4044 89.3 67.8311 89.3C68.2711 89.3 68.6578 89.4 68.9911 89.6C69.3244 89.7867 69.5844 90.0533 69.7711 90.4C69.9711 90.7467 70.0711 91.14 70.0711 91.58C70.0711 92.02 69.9644 92.4067 69.7511 92.74C69.5511 93.0733 69.2778 93.3333 68.9311 93.52C68.5978 93.7067 68.2311 93.8 67.8311 93.8C67.4311 93.8 67.0578 93.7067 66.7111 93.52C66.3778 93.3333 66.1044 93.0733 65.8911 92.74C65.6911 92.4067 65.5911 92.02 65.5911 91.58ZM63.4711 98.2C63.4711 98.7467 63.5778 99.26 63.7911 99.74C64.0178 100.22 64.3244 100.647 64.7111 101.02C65.1111 101.393 65.5711 101.687 66.0911 101.9C66.6244 102.1 67.2044 102.2 67.8311 102.2C68.4578 102.2 69.0311 102.1 69.5511 101.9C70.0844 101.687 70.5444 101.393 70.9311 101.02C71.3311 100.647 71.6378 100.22 71.8511 99.74C72.0778 99.26 72.1911 98.7467 72.1911 98.2C72.1911 97.56 72.0711 96.9933 71.8311 96.5C71.6044 95.9933 71.2844 95.5733 70.8711 95.24C70.4711 94.8933 70.0044 94.6333 69.4711 94.46C68.9511 94.2867 68.4044 94.2 67.8311 94.2C67.2578 94.2 66.7044 94.2867 66.1711 94.46C65.6511 94.6333 65.1844 94.8933 64.7711 95.24C64.3711 95.5733 64.0511 95.9933 63.8111 96.5C63.5844 96.9933 63.4711 97.56 63.4711 98.2ZM65.0911 98C65.0911 97.4933 65.2178 97.04 65.4711 96.64C65.7378 96.2267 66.0778 95.9 66.4911 95.66C66.9178 95.42 67.3644 95.3 67.8311 95.3C68.2978 95.3 68.7378 95.42 69.1511 95.66C69.5778 95.9 69.9178 96.2267 70.1711 96.64C70.4378 97.04 70.5711 97.4933 70.5711 98C70.5711 98.5733 70.4378 99.06 70.1711 99.46C69.9178 99.86 69.5778 100.167 69.1511 100.38C68.7378 100.593 68.2978 100.7 67.8311 100.7C67.3644 100.7 66.9178 100.593 66.4911 100.38C66.0778 100.167 65.7378 99.86 65.4711 99.46C65.2178 99.06 65.0911 98.5733 65.0911 98Z" fill="#006B51"/>
<rect x="1" y="33.5" width="99" height="99" rx="49.5" stroke="#006B51"/>
</svg>
