<svg width="100" height="133" viewBox="0 0 100 133" fill="none" xmlns="http://www.w3.org/2000/svg">
<path d="M50 1L50 61" stroke="#CCCCCC" stroke-linecap="round" stroke-dasharray="10 14"/>
<rect x="0.5" y="33.5" width="99" height="99" rx="49.5" fill="#F7F7F7"/>
<path d="M16.4 78H26.28V76.4H19.9L24.36 71.86C24.9067 71.3 25.3533 70.6667 25.7 69.96C26.0467 69.2533 26.22 68.54 26.22 67.82C26.22 67.3933 26.1333 66.9467 25.96 66.48C25.7867 66.0133 25.52 65.58 25.16 65.18C24.8 64.7667 24.34 64.4333 23.78 64.18C23.22 63.9133 22.5533 63.78 21.78 63.78C20.82 63.78 19.9933 63.9933 19.3 64.42C18.62 64.8333 18.1 65.42 17.74 66.18C17.38 66.9267 17.2 67.8 17.2 68.8H18.9C18.9 68.0933 19.0133 67.4867 19.24 66.98C19.4667 66.46 19.7933 66.0667 20.22 65.8C20.66 65.52 21.18 65.38 21.78 65.38C22.2067 65.38 22.5867 65.4533 22.92 65.6C23.2533 65.7467 23.5333 65.94 23.76 66.18C24 66.42 24.18 66.6867 24.3 66.98C24.42 67.2733 24.48 67.5733 24.48 67.88C24.48 68.2533 24.42 68.6133 24.3 68.96C24.1933 69.2933 24.0267 69.6267 23.8 69.96C23.5867 70.28 23.3267 70.6067 23.02 70.94L16.4 78ZM29.8867 71C29.8867 70.1867 29.9667 69.44 30.1267 68.76C30.2867 68.0667 30.5201 67.4733 30.8267 66.98C31.1334 66.4733 31.5001 66.0867 31.9267 65.82C32.3667 65.54 32.8534 65.4 33.3867 65.4C33.9334 65.4 34.4201 65.54 34.8467 65.82C35.2734 66.0867 35.6401 66.4733 35.9467 66.98C36.2534 67.4733 36.4867 68.0667 36.6467 68.76C36.8067 69.44 36.8867 70.1867 36.8867 71C36.8867 71.8133 36.8067 72.5667 36.6467 73.26C36.4867 73.94 36.2534 74.5333 35.9467 75.04C35.6401 75.5333 35.2734 75.92 34.8467 76.2C34.4201 76.4667 33.9334 76.6 33.3867 76.6C32.8534 76.6 32.3667 76.4667 31.9267 76.2C31.5001 75.92 31.1334 75.5333 30.8267 75.04C30.5201 74.5333 30.2867 73.94 30.1267 73.26C29.9667 72.5667 29.8867 71.8133 29.8867 71ZM28.1867 71C28.1867 72.4 28.4067 73.64 28.8467 74.72C29.2867 75.8 29.8934 76.6533 30.6667 77.28C31.4534 77.8933 32.3601 78.2 33.3867 78.2C34.4134 78.2 35.3134 77.8933 36.0867 77.28C36.8734 76.6533 37.4867 75.8 37.9267 74.72C38.3667 73.64 38.5867 72.4 38.5867 71C38.5867 69.6 38.3667 68.36 37.9267 67.28C37.4867 66.2 36.8734 65.3533 36.0867 64.74C35.3134 64.1133 34.4134 63.8 33.3867 63.8C32.3601 63.8 31.4534 64.1133 30.6667 64.74C29.8934 65.3533 29.2867 66.2 28.8467 67.28C28.4067 68.36 28.1867 69.6 28.1867 71ZM41.8789 71C41.8789 70.1867 41.9589 69.44 42.1189 68.76C42.2789 68.0667 42.5122 67.4733 42.8189 66.98C43.1256 66.4733 43.4922 66.0867 43.9189 65.82C44.3589 65.54 44.8456 65.4 45.3789 65.4C45.9256 65.4 46.4122 65.54 46.8389 65.82C47.2656 66.0867 47.6322 66.4733 47.9389 66.98C48.2456 67.4733 48.4789 68.0667 48.6389 68.76C48.7989 69.44 48.8789 70.1867 48.8789 71C48.8789 71.8133 48.7989 72.5667 48.6389 73.26C48.4789 73.94 48.2456 74.5333 47.9389 75.04C47.6322 75.5333 47.2656 75.92 46.8389 76.2C46.4122 76.4667 45.9256 76.6 45.3789 76.6C44.8456 76.6 44.3589 76.4667 43.9189 76.2C43.4922 75.92 43.1256 75.5333 42.8189 75.04C42.5122 74.5333 42.2789 73.94 42.1189 73.26C41.9589 72.5667 41.8789 71.8133 41.8789 71ZM40.1789 71C40.1789 72.4 40.3989 73.64 40.8389 74.72C41.2789 75.8 41.8856 76.6533 42.6589 77.28C43.4456 77.8933 44.3522 78.2 45.3789 78.2C46.4056 78.2 47.3056 77.8933 48.0789 77.28C48.8656 76.6533 49.4789 75.8 49.9189 74.72C50.3589 73.64 50.5789 72.4 50.5789 71C50.5789 69.6 50.3589 68.36 49.9189 67.28C49.4789 66.2 48.8656 65.3533 48.0789 64.74C47.3056 64.1133 46.4056 63.8 45.3789 63.8C44.3522 63.8 43.4456 64.1133 42.6589 64.74C41.8856 65.3533 41.2789 66.2 40.8389 67.28C40.3989 68.36 40.1789 69.6 40.1789 71ZM51.7711 78H61.6511V76.4H55.2711L59.7311 71.86C60.2778 71.3 60.7244 70.6667 61.0711 69.96C61.4178 69.2533 61.5911 68.54 61.5911 67.82C61.5911 67.3933 61.5044 66.9467 61.3311 66.48C61.1578 66.0133 60.8911 65.58 60.5311 65.18C60.1711 64.7667 59.7111 64.4333 59.1511 64.18C58.5911 63.9133 57.9244 63.78 57.1511 63.78C56.1911 63.78 55.3644 63.9933 54.6711 64.42C53.9911 64.8333 53.4711 65.42 53.1111 66.18C52.7511 66.9267 52.5711 67.8 52.5711 68.8H54.2711C54.2711 68.0933 54.3844 67.4867 54.6111 66.98C54.8378 66.46 55.1644 66.0667 55.5911 65.8C56.0311 65.52 56.5511 65.38 57.1511 65.38C57.5778 65.38 57.9578 65.4533 58.2911 65.6C58.6244 65.7467 58.9044 65.94 59.1311 66.18C59.3711 66.42 59.5511 66.6867 59.6711 66.98C59.7911 67.2733 59.8511 67.5733 59.8511 67.88C59.8511 68.2533 59.7911 68.6133 59.6711 68.96C59.5644 69.2933 59.3978 69.6267 59.1711 69.96C58.9578 70.28 58.6978 70.6067 58.3911 70.94L51.7711 78ZM70.1539 74H82.1539V72.5H70.1539V74Z" fill="#CCCCCC"/>
<path d="M26.9 102H36.78V100.4H30.4L34.86 95.86C35.4067 95.3 35.8533 94.6667 36.2 93.96C36.5467 93.2533 36.72 92.54 36.72 91.82C36.72 91.3933 36.6333 90.9467 36.46 90.48C36.2867 90.0133 36.02 89.58 35.66 89.18C35.3 88.7667 34.84 88.4333 34.28 88.18C33.72 87.9133 33.0533 87.78 32.28 87.78C31.32 87.78 30.4933 87.9933 29.8 88.42C29.12 88.8333 28.6 89.42 28.24 90.18C27.88 90.9267 27.7 91.8 27.7 92.8H29.4C29.4 92.0933 29.5133 91.4867 29.74 90.98C29.9667 90.46 30.2933 90.0667 30.72 89.8C31.16 89.52 31.68 89.38 32.28 89.38C32.7067 89.38 33.0867 89.4533 33.42 89.6C33.7533 89.7467 34.0333 89.94 34.26 90.18C34.5 90.42 34.68 90.6867 34.8 90.98C34.92 91.2733 34.98 91.5733 34.98 91.88C34.98 92.2533 34.92 92.6133 34.8 92.96C34.6933 93.2933 34.5267 93.6267 34.3 93.96C34.0867 94.28 33.8267 94.6067 33.52 94.94L26.9 102ZM40.3867 95C40.3867 94.1867 40.4667 93.44 40.6267 92.76C40.7867 92.0667 41.0201 91.4733 41.3267 90.98C41.6334 90.4733 42.0001 90.0867 42.4267 89.82C42.8667 89.54 43.3534 89.4 43.8867 89.4C44.4334 89.4 44.9201 89.54 45.3467 89.82C45.7734 90.0867 46.1401 90.4733 46.4467 90.98C46.7534 91.4733 46.9867 92.0667 47.1467 92.76C47.3067 93.44 47.3867 94.1867 47.3867 95C47.3867 95.8133 47.3067 96.5667 47.1467 97.26C46.9867 97.94 46.7534 98.5333 46.4467 99.04C46.1401 99.5333 45.7734 99.92 45.3467 100.2C44.9201 100.467 44.4334 100.6 43.8867 100.6C43.3534 100.6 42.8667 100.467 42.4267 100.2C42.0001 99.92 41.6334 99.5333 41.3267 99.04C41.0201 98.5333 40.7867 97.94 40.6267 97.26C40.4667 96.5667 40.3867 95.8133 40.3867 95ZM38.6867 95C38.6867 96.4 38.9067 97.64 39.3467 98.72C39.7867 99.8 40.3934 100.653 41.1667 101.28C41.9534 101.893 42.8601 102.2 43.8867 102.2C44.9134 102.2 45.8134 101.893 46.5867 101.28C47.3734 100.653 47.9867 99.8 48.4267 98.72C48.8667 97.64 49.0867 96.4 49.0867 95C49.0867 93.6 48.8667 92.36 48.4267 91.28C47.9867 90.2 47.3734 89.3533 46.5867 88.74C45.8134 88.1133 44.9134 87.8 43.8867 87.8C42.8601 87.8 41.9534 88.1133 41.1667 88.74C40.3934 89.3533 39.7867 90.2 39.3467 91.28C38.9067 92.36 38.6867 93.6 38.6867 95ZM52.3789 95C52.3789 94.1867 52.4589 93.44 52.6189 92.76C52.7789 92.0667 53.0122 91.4733 53.3189 90.98C53.6256 90.4733 53.9922 90.0867 54.4189 89.82C54.8589 89.54 55.3456 89.4 55.8789 89.4C56.4256 89.4 56.9122 89.54 57.3389 89.82C57.7656 90.0867 58.1322 90.4733 58.4389 90.98C58.7456 91.4733 58.9789 92.0667 59.1389 92.76C59.2989 93.44 59.3789 94.1867 59.3789 95C59.3789 95.8133 59.2989 96.5667 59.1389 97.26C58.9789 97.94 58.7456 98.5333 58.4389 99.04C58.1322 99.5333 57.7656 99.92 57.3389 100.2C56.9122 100.467 56.4256 100.6 55.8789 100.6C55.3456 100.6 54.8589 100.467 54.4189 100.2C53.9922 99.92 53.6256 99.5333 53.3189 99.04C53.0122 98.5333 52.7789 97.94 52.6189 97.26C52.4589 96.5667 52.3789 95.8133 52.3789 95ZM50.6789 95C50.6789 96.4 50.8989 97.64 51.3389 98.72C51.7789 99.8 52.3856 100.653 53.1589 101.28C53.9456 101.893 54.8522 102.2 55.8789 102.2C56.9056 102.2 57.8056 101.893 58.5789 101.28C59.3656 100.653 59.9789 99.8 60.4189 98.72C60.8589 97.64 61.0789 96.4 61.0789 95C61.0789 93.6 60.8589 92.36 60.4189 91.28C59.9789 90.2 59.3656 89.3533 58.5789 88.74C57.8056 88.1133 56.9056 87.8 55.8789 87.8C54.8522 87.8 53.9456 88.1133 53.1589 88.74C52.3856 89.3533 51.7789 90.2 51.3389 91.28C50.8989 92.36 50.6789 93.6 50.6789 95ZM63.4711 91.38C63.4711 91.9267 63.5644 92.42 63.7511 92.86C63.9378 93.2867 64.1978 93.6533 64.5311 93.96C64.8778 94.2667 65.2844 94.5 65.7511 94.66C66.2311 94.82 66.7578 94.9 67.3311 94.9C67.9044 94.9 68.4244 94.82 68.8911 94.66C69.3711 94.5 69.7778 94.2667 70.1111 93.96C70.4578 93.6533 70.7244 93.2867 70.9111 92.86C71.0978 92.42 71.1911 91.9267 71.1911 91.38C71.1911 90.7133 71.0178 90.1133 70.6711 89.58C70.3378 89.0333 69.8778 88.6 69.2911 88.28C68.7178 87.96 68.0644 87.8 67.3311 87.8C66.5978 87.8 65.9378 87.96 65.3511 88.28C64.7778 88.6 64.3178 89.0333 63.9711 89.58C63.6378 90.1133 63.4711 90.7133 63.4711 91.38ZM65.0911 91.58C65.0911 91.14 65.1844 90.7467 65.3711 90.4C65.5711 90.0533 65.8378 89.7867 66.1711 89.6C66.5178 89.4 66.9044 89.3 67.3311 89.3C67.7711 89.3 68.1578 89.4 68.4911 89.6C68.8244 89.7867 69.0844 90.0533 69.2711 90.4C69.4711 90.7467 69.5711 91.14 69.5711 91.58C69.5711 92.02 69.4644 92.4067 69.2511 92.74C69.0511 93.0733 68.7778 93.3333 68.4311 93.52C68.0978 93.7067 67.7311 93.8 67.3311 93.8C66.9311 93.8 66.5578 93.7067 66.2111 93.52C65.8778 93.3333 65.6044 93.0733 65.3911 92.74C65.1911 92.4067 65.0911 92.02 65.0911 91.58ZM62.9711 98.2C62.9711 98.7467 63.0778 99.26 63.2911 99.74C63.5178 100.22 63.8244 100.647 64.2111 101.02C64.6111 101.393 65.0711 101.687 65.5911 101.9C66.1244 102.1 66.7044 102.2 67.3311 102.2C67.9578 102.2 68.5311 102.1 69.0511 101.9C69.5844 101.687 70.0444 101.393 70.4311 101.02C70.8311 100.647 71.1378 100.22 71.3511 99.74C71.5778 99.26 71.6911 98.7467 71.6911 98.2C71.6911 97.56 71.5711 96.9933 71.3311 96.5C71.1044 95.9933 70.7844 95.5733 70.3711 95.24C69.9711 94.8933 69.5044 94.6333 68.9711 94.46C68.4511 94.2867 67.9044 94.2 67.3311 94.2C66.7578 94.2 66.2044 94.2867 65.6711 94.46C65.1511 94.6333 64.6844 94.8933 64.2711 95.24C63.8711 95.5733 63.5511 95.9933 63.3111 96.5C63.0844 96.9933 62.9711 97.56 62.9711 98.2ZM64.5911 98C64.5911 97.4933 64.7178 97.04 64.9711 96.64C65.2378 96.2267 65.5778 95.9 65.9911 95.66C66.4178 95.42 66.8644 95.3 67.3311 95.3C67.7978 95.3 68.2378 95.42 68.6511 95.66C69.0778 95.9 69.4178 96.2267 69.6711 96.64C69.9378 97.04 70.0711 97.4933 70.0711 98C70.0711 98.5733 69.9378 99.06 69.6711 99.46C69.4178 99.86 69.0778 100.167 68.6511 100.38C68.2378 100.593 67.7978 100.7 67.3311 100.7C66.8644 100.7 66.4178 100.593 65.9911 100.38C65.5778 100.167 65.2378 99.86 64.9711 99.46C64.7178 99.06 64.5911 98.5733 64.5911 98Z" fill="#CCCCCC"/>
<rect x="0.5" y="33.5" width="99" height="99" rx="49.5" stroke="#CCCCCC" stroke-linecap="round" stroke-dasharray="10 14"/>
</svg>
