<svg width="101" height="133" viewBox="0 0 101 133" fill="none" xmlns="http://www.w3.org/2000/svg">
<path d="M50.5 1L50.5 61" stroke="#006B51" stroke-linecap="round"/>
<rect x="1" y="33.5" width="99" height="99" rx="49.5" fill="#F7F7F7"/>
<path d="M18.4 78H28.28V76.4H21.9L26.36 71.86C26.9067 71.3 27.3533 70.6667 27.7 69.96C28.0467 69.2533 28.22 68.54 28.22 67.82C28.22 67.3933 28.1333 66.9467 27.96 66.48C27.7867 66.0133 27.52 65.58 27.16 65.18C26.8 64.7667 26.34 64.4333 25.78 64.18C25.22 63.9133 24.5533 63.78 23.78 63.78C22.82 63.78 21.9933 63.9933 21.3 64.42C20.62 64.8333 20.1 65.42 19.74 66.18C19.38 66.9267 19.2 67.8 19.2 68.8H20.9C20.9 68.0933 21.0133 67.4867 21.24 66.98C21.4667 66.46 21.7933 66.0667 22.22 65.8C22.66 65.52 23.18 65.38 23.78 65.38C24.2067 65.38 24.5867 65.4533 24.92 65.6C25.2533 65.7467 25.5333 65.94 25.76 66.18C26 66.42 26.18 66.6867 26.3 66.98C26.42 67.2733 26.48 67.5733 26.48 67.88C26.48 68.2533 26.42 68.6133 26.3 68.96C26.1933 69.2933 26.0267 69.6267 25.8 69.96C25.5867 70.28 25.3267 70.6067 25.02 70.94L18.4 78ZM31.8867 71C31.8867 70.1867 31.9667 69.44 32.1267 68.76C32.2867 68.0667 32.5201 67.4733 32.8267 66.98C33.1334 66.4733 33.5001 66.0867 33.9267 65.82C34.3667 65.54 34.8534 65.4 35.3867 65.4C35.9334 65.4 36.4201 65.54 36.8467 65.82C37.2734 66.0867 37.6401 66.4733 37.9467 66.98C38.2534 67.4733 38.4867 68.0667 38.6467 68.76C38.8067 69.44 38.8867 70.1867 38.8867 71C38.8867 71.8133 38.8067 72.5667 38.6467 73.26C38.4867 73.94 38.2534 74.5333 37.9467 75.04C37.6401 75.5333 37.2734 75.92 36.8467 76.2C36.4201 76.4667 35.9334 76.6 35.3867 76.6C34.8534 76.6 34.3667 76.4667 33.9267 76.2C33.5001 75.92 33.1334 75.5333 32.8267 75.04C32.5201 74.5333 32.2867 73.94 32.1267 73.26C31.9667 72.5667 31.8867 71.8133 31.8867 71ZM30.1867 71C30.1867 72.4 30.4067 73.64 30.8467 74.72C31.2867 75.8 31.8934 76.6533 32.6667 77.28C33.4534 77.8933 34.3601 78.2 35.3867 78.2C36.4134 78.2 37.3134 77.8933 38.0867 77.28C38.8734 76.6533 39.4867 75.8 39.9267 74.72C40.3667 73.64 40.5867 72.4 40.5867 71C40.5867 69.6 40.3667 68.36 39.9267 67.28C39.4867 66.2 38.8734 65.3533 38.0867 64.74C37.3134 64.1133 36.4134 63.8 35.3867 63.8C34.3601 63.8 33.4534 64.1133 32.6667 64.74C31.8934 65.3533 31.2867 66.2 30.8467 67.28C30.4067 68.36 30.1867 69.6 30.1867 71ZM42.9789 66.76L46.0789 65.84V78H47.7789V63.8L42.9789 65V66.76ZM59.2828 68.6C59.2828 69.24 59.1428 69.8067 58.8628 70.3C58.5961 70.7933 58.2228 71.1867 57.7428 71.48C57.2761 71.76 56.7428 71.9 56.1428 71.9C55.5428 71.9 55.0028 71.76 54.5228 71.48C54.0561 71.1867 53.6828 70.7933 53.4028 70.3C53.1361 69.8067 53.0028 69.24 53.0028 68.6C53.0028 67.96 53.1361 67.4 53.4028 66.92C53.6828 66.4267 54.0561 66.04 54.5228 65.76C55.0028 65.48 55.5428 65.34 56.1428 65.34C56.7428 65.34 57.2761 65.48 57.7428 65.76C58.2228 66.04 58.5961 66.4267 58.8628 66.92C59.1428 67.4 59.2828 67.96 59.2828 68.6ZM55.3028 78L60.0228 71.5C60.2895 71.1267 60.5028 70.6933 60.6628 70.2C60.8228 69.7067 60.9028 69.1733 60.9028 68.6C60.9028 67.64 60.6895 66.8 60.2628 66.08C59.8495 65.36 59.2828 64.8 58.5628 64.4C57.8561 64 57.0495 63.8 56.1428 63.8C55.2495 63.8 54.4428 64 53.7228 64.4C53.0028 64.8 52.4295 65.36 52.0028 66.08C51.5895 66.8 51.3828 67.64 51.3828 68.6C51.3828 69.24 51.4895 69.84 51.7028 70.4C51.9161 70.9467 52.2095 71.4267 52.5828 71.84C52.9695 72.2533 53.4095 72.5733 53.9028 72.8C54.4095 73.0267 54.9495 73.14 55.5228 73.14C55.9761 73.14 56.3761 73.0867 56.7228 72.98C57.0828 72.8733 57.3961 72.6533 57.6628 72.32L57.5428 72.22L53.1628 78H55.3028ZM69.3023 74H81.3023V72.5H69.3023V74Z" fill="#006B51"/>
<path d="M28.9 102H38.78V100.4H32.4L36.86 95.86C37.4067 95.3 37.8533 94.6667 38.2 93.96C38.5467 93.2533 38.72 92.54 38.72 91.82C38.72 91.3933 38.6333 90.9467 38.46 90.48C38.2867 90.0133 38.02 89.58 37.66 89.18C37.3 88.7667 36.84 88.4333 36.28 88.18C35.72 87.9133 35.0533 87.78 34.28 87.78C33.32 87.78 32.4933 87.9933 31.8 88.42C31.12 88.8333 30.6 89.42 30.24 90.18C29.88 90.9267 29.7 91.8 29.7 92.8H31.4C31.4 92.0933 31.5133 91.4867 31.74 90.98C31.9667 90.46 32.2933 90.0667 32.72 89.8C33.16 89.52 33.68 89.38 34.28 89.38C34.7067 89.38 35.0867 89.4533 35.42 89.6C35.7533 89.7467 36.0333 89.94 36.26 90.18C36.5 90.42 36.68 90.6867 36.8 90.98C36.92 91.2733 36.98 91.5733 36.98 91.88C36.98 92.2533 36.92 92.6133 36.8 92.96C36.6933 93.2933 36.5267 93.6267 36.3 93.96C36.0867 94.28 35.8267 94.6067 35.52 94.94L28.9 102ZM42.3867 95C42.3867 94.1867 42.4667 93.44 42.6267 92.76C42.7867 92.0667 43.0201 91.4733 43.3267 90.98C43.6334 90.4733 44.0001 90.0867 44.4267 89.82C44.8667 89.54 45.3534 89.4 45.8867 89.4C46.4334 89.4 46.9201 89.54 47.3467 89.82C47.7734 90.0867 48.1401 90.4733 48.4467 90.98C48.7534 91.4733 48.9867 92.0667 49.1467 92.76C49.3067 93.44 49.3867 94.1867 49.3867 95C49.3867 95.8133 49.3067 96.5667 49.1467 97.26C48.9867 97.94 48.7534 98.5333 48.4467 99.04C48.1401 99.5333 47.7734 99.92 47.3467 100.2C46.9201 100.467 46.4334 100.6 45.8867 100.6C45.3534 100.6 44.8667 100.467 44.4267 100.2C44.0001 99.92 43.6334 99.5333 43.3267 99.04C43.0201 98.5333 42.7867 97.94 42.6267 97.26C42.4667 96.5667 42.3867 95.8133 42.3867 95ZM40.6867 95C40.6867 96.4 40.9067 97.64 41.3467 98.72C41.7867 99.8 42.3934 100.653 43.1667 101.28C43.9534 101.893 44.8601 102.2 45.8867 102.2C46.9134 102.2 47.8134 101.893 48.5867 101.28C49.3734 100.653 49.9867 99.8 50.4267 98.72C50.8667 97.64 51.0867 96.4 51.0867 95C51.0867 93.6 50.8667 92.36 50.4267 91.28C49.9867 90.2 49.3734 89.3533 48.5867 88.74C47.8134 88.1133 46.9134 87.8 45.8867 87.8C44.8601 87.8 43.9534 88.1133 43.1667 88.74C42.3934 89.3533 41.7867 90.2 41.3467 91.28C40.9067 92.36 40.6867 93.6 40.6867 95ZM52.2789 102H62.1589V100.4H55.7789L60.2389 95.86C60.7856 95.3 61.2322 94.6667 61.5789 93.96C61.9256 93.2533 62.0989 92.54 62.0989 91.82C62.0989 91.3933 62.0122 90.9467 61.8389 90.48C61.6656 90.0133 61.3989 89.58 61.0389 89.18C60.6789 88.7667 60.2189 88.4333 59.6589 88.18C59.0989 87.9133 58.4322 87.78 57.6589 87.78C56.6989 87.78 55.8722 87.9933 55.1789 88.42C54.4989 88.8333 53.9789 89.42 53.6189 90.18C53.2589 90.9267 53.0789 91.8 53.0789 92.8H54.7789C54.7789 92.0933 54.8922 91.4867 55.1189 90.98C55.3456 90.46 55.6722 90.0667 56.0989 89.8C56.5389 89.52 57.0589 89.38 57.6589 89.38C58.0856 89.38 58.4656 89.4533 58.7989 89.6C59.1322 89.7467 59.4122 89.94 59.6389 90.18C59.8789 90.42 60.0589 90.6867 60.1789 90.98C60.2989 91.2733 60.3589 91.5733 60.3589 91.88C60.3589 92.2533 60.2989 92.6133 60.1789 92.96C60.0722 93.2933 59.9056 93.6267 59.6789 93.96C59.4656 94.28 59.2056 94.6067 58.8989 94.94L52.2789 102ZM64.8656 90.76L67.9656 89.84V102H69.6656V87.8L64.8656 89V90.76Z" fill="#006B51"/>
<rect x="1" y="33.5" width="99" height="99" rx="49.5" stroke="#006B51"/>
</svg>
