<svg width="24" height="24" viewBox="0 0 24 24" fill="none" xmlns="http://www.w3.org/2000/svg">
<g clip-path="url(#clip0_1_246)">
<path d="M11.5075 24H12.5069C17.9318 24 20.6448 24 22.3296 22.3152C24.0144 20.6304 24 17.9184 24 12.5069V11.4931C24 6.08255 24 3.3696 22.3296 1.6848C20.6592 4.82798e-06 17.9318 0 12.5069 0H11.5075C6.08161 0 3.3696 4.82798e-06 1.6848 1.6848C-1.07288e-06 3.3696 0 6.08062 0 11.4931V12.5069C0 17.9184 -1.07288e-06 20.6304 1.6848 22.3152C3.3696 24 6.08161 24 11.5075 24Z" fill="#2683ED"/>
<path d="M12.8788 17.3037C7.46724 17.3037 4.1831 13.5491 4.05542 7.31006H6.79622C6.88167 11.8931 8.96677 13.8381 10.5652 14.2345V7.31006H13.1927V11.2643C14.7345 11.0934 16.3473 9.29437 16.8906 7.31006H19.474C19.0602 9.75135 17.3044 11.5504 16.0621 12.2924C17.3044 12.8924 19.3031 14.463 20.074 17.3037H17.2334C16.6334 15.4048 15.1626 13.9341 13.1927 13.7344V17.3037H12.8788Z" fill="white"/>
</g>
<defs>
<clipPath id="clip0_1_246">
<rect width="24" height="24" fill="white"/>
</clipPath>
</defs>
</svg>
