<svg width="102" height="2074" viewBox="0 0 102 2074" fill="none" xmlns="http://www.w3.org/2000/svg">
<path d="M51 0.5V2000.5" stroke="#CCCCCC" stroke-linecap="round" stroke-dasharray="10 14"/>
<rect x="1" y="773" width="100" height="100" rx="50" fill="#F7F7F7"/>
<path d="M19.4 816H29.28V814.4H22.9L27.36 809.86C27.9067 809.3 28.3533 808.667 28.7 807.96C29.0467 807.253 29.22 806.54 29.22 805.82C29.22 805.393 29.1333 804.947 28.96 804.48C28.7867 804.013 28.52 803.58 28.16 803.18C27.8 802.767 27.34 802.433 26.78 802.18C26.22 801.913 25.5533 801.78 24.78 801.78C23.82 801.78 22.9933 801.993 22.3 802.42C21.62 802.833 21.1 803.42 20.74 804.18C20.38 804.927 20.2 805.8 20.2 806.8H21.9C21.9 806.093 22.0133 805.487 22.24 804.98C22.4667 804.46 22.7933 804.067 23.22 803.8C23.66 803.52 24.18 803.38 24.78 803.38C25.2067 803.38 25.5867 803.453 25.92 803.6C26.2533 803.747 26.5333 803.94 26.76 804.18C27 804.42 27.18 804.687 27.3 804.98C27.42 805.273 27.48 805.573 27.48 805.88C27.48 806.253 27.42 806.613 27.3 806.96C27.1933 807.293 27.0267 807.627 26.8 807.96C26.5867 808.28 26.3267 808.607 26.02 808.94L19.4 816ZM32.8867 809C32.8867 808.187 32.9667 807.44 33.1267 806.76C33.2867 806.067 33.5201 805.473 33.8267 804.98C34.1334 804.473 34.5001 804.087 34.9267 803.82C35.3667 803.54 35.8534 803.4 36.3867 803.4C36.9334 803.4 37.4201 803.54 37.8467 803.82C38.2734 804.087 38.6401 804.473 38.9467 804.98C39.2534 805.473 39.4867 806.067 39.6467 806.76C39.8067 807.44 39.8867 808.187 39.8867 809C39.8867 809.813 39.8067 810.567 39.6467 811.26C39.4867 811.94 39.2534 812.533 38.9467 813.04C38.6401 813.533 38.2734 813.92 37.8467 814.2C37.4201 814.467 36.9334 814.6 36.3867 814.6C35.8534 814.6 35.3667 814.467 34.9267 814.2C34.5001 813.92 34.1334 813.533 33.8267 813.04C33.5201 812.533 33.2867 811.94 33.1267 811.26C32.9667 810.567 32.8867 809.813 32.8867 809ZM31.1867 809C31.1867 810.4 31.4067 811.64 31.8467 812.72C32.2867 813.8 32.8934 814.653 33.6667 815.28C34.4534 815.893 35.3601 816.2 36.3867 816.2C37.4134 816.2 38.3134 815.893 39.0867 815.28C39.8734 814.653 40.4867 813.8 40.9267 812.72C41.3667 811.64 41.5867 810.4 41.5867 809C41.5867 807.6 41.3667 806.36 40.9267 805.28C40.4867 804.2 39.8734 803.353 39.0867 802.74C38.3134 802.113 37.4134 801.8 36.3867 801.8C35.3601 801.8 34.4534 802.113 33.6667 802.74C32.8934 803.353 32.2867 804.2 31.8467 805.28C31.4067 806.36 31.1867 807.6 31.1867 809ZM44.8789 809C44.8789 808.187 44.9589 807.44 45.1189 806.76C45.2789 806.067 45.5122 805.473 45.8189 804.98C46.1256 804.473 46.4922 804.087 46.9189 803.82C47.3589 803.54 47.8456 803.4 48.3789 803.4C48.9256 803.4 49.4122 803.54 49.8389 803.82C50.2656 804.087 50.6322 804.473 50.9389 804.98C51.2456 805.473 51.4789 806.067 51.6389 806.76C51.7989 807.44 51.8789 808.187 51.8789 809C51.8789 809.813 51.7989 810.567 51.6389 811.26C51.4789 811.94 51.2456 812.533 50.9389 813.04C50.6322 813.533 50.2656 813.92 49.8389 814.2C49.4122 814.467 48.9256 814.6 48.3789 814.6C47.8456 814.6 47.3589 814.467 46.9189 814.2C46.4922 813.92 46.1256 813.533 45.8189 813.04C45.5122 812.533 45.2789 811.94 45.1189 811.26C44.9589 810.567 44.8789 809.813 44.8789 809ZM43.1789 809C43.1789 810.4 43.3989 811.64 43.8389 812.72C44.2789 813.8 44.8856 814.653 45.6589 815.28C46.4456 815.893 47.3522 816.2 48.3789 816.2C49.4056 816.2 50.3056 815.893 51.0789 815.28C51.8656 814.653 52.4789 813.8 52.9189 812.72C53.3589 811.64 53.5789 810.4 53.5789 809C53.5789 807.6 53.3589 806.36 52.9189 805.28C52.4789 804.2 51.8656 803.353 51.0789 802.74C50.3056 802.113 49.4056 801.8 48.3789 801.8C47.3522 801.8 46.4456 802.113 45.6589 802.74C44.8856 803.353 44.2789 804.2 43.8389 805.28C43.3989 806.36 43.1789 807.6 43.1789 809ZM63.2711 806.6C63.2711 807.24 63.1311 807.807 62.8511 808.3C62.5844 808.793 62.2111 809.187 61.7311 809.48C61.2644 809.76 60.7311 809.9 60.1311 809.9C59.5311 809.9 58.9911 809.76 58.5111 809.48C58.0444 809.187 57.6711 808.793 57.3911 808.3C57.1244 807.807 56.9911 807.24 56.9911 806.6C56.9911 805.96 57.1244 805.4 57.3911 804.92C57.6711 804.427 58.0444 804.04 58.5111 803.76C58.9911 803.48 59.5311 803.34 60.1311 803.34C60.7311 803.34 61.2644 803.48 61.7311 803.76C62.2111 804.04 62.5844 804.427 62.8511 804.92C63.1311 805.4 63.2711 805.96 63.2711 806.6ZM59.2911 816L64.0111 809.5C64.2778 809.127 64.4911 808.693 64.6511 808.2C64.8111 807.707 64.8911 807.173 64.8911 806.6C64.8911 805.64 64.6778 804.8 64.2511 804.08C63.8378 803.36 63.2711 802.8 62.5511 802.4C61.8444 802 61.0378 801.8 60.1311 801.8C59.2378 801.8 58.4311 802 57.7111 802.4C56.9911 802.8 56.4178 803.36 55.9911 804.08C55.5778 804.8 55.3711 805.64 55.3711 806.6C55.3711 807.24 55.4778 807.84 55.6911 808.4C55.9044 808.947 56.1978 809.427 56.5711 809.84C56.9578 810.253 57.3978 810.573 57.8911 810.8C58.3978 811.027 58.9378 811.14 59.5111 811.14C59.9644 811.14 60.3644 811.087 60.7111 810.98C61.0711 810.873 61.3844 810.653 61.6511 810.32L61.5311 810.22L57.1511 816H59.2911ZM72.5306 810.52V808.96H81.6506V810.52H72.5306Z" fill="#CCCCCC"/>
<path d="M28.9 844H38.78V842.4H32.4L36.86 837.86C37.4067 837.3 37.8533 836.667 38.2 835.96C38.5467 835.253 38.72 834.54 38.72 833.82C38.72 833.393 38.6333 832.947 38.46 832.48C38.2867 832.013 38.02 831.58 37.66 831.18C37.3 830.767 36.84 830.433 36.28 830.18C35.72 829.913 35.0533 829.78 34.28 829.78C33.32 829.78 32.4933 829.993 31.8 830.42C31.12 830.833 30.6 831.42 30.24 832.18C29.88 832.927 29.7 833.8 29.7 834.8H31.4C31.4 834.093 31.5133 833.487 31.74 832.98C31.9667 832.46 32.2933 832.067 32.72 831.8C33.16 831.52 33.68 831.38 34.28 831.38C34.7067 831.38 35.0867 831.453 35.42 831.6C35.7533 831.747 36.0333 831.94 36.26 832.18C36.5 832.42 36.68 832.687 36.8 832.98C36.92 833.273 36.98 833.573 36.98 833.88C36.98 834.253 36.92 834.613 36.8 834.96C36.6933 835.293 36.5267 835.627 36.3 835.96C36.0867 836.28 35.8267 836.607 35.52 836.94L28.9 844ZM42.3867 837C42.3867 836.187 42.4667 835.44 42.6267 834.76C42.7867 834.067 43.0201 833.473 43.3267 832.98C43.6334 832.473 44.0001 832.087 44.4267 831.82C44.8667 831.54 45.3534 831.4 45.8867 831.4C46.4334 831.4 46.9201 831.54 47.3467 831.82C47.7734 832.087 48.1401 832.473 48.4467 832.98C48.7534 833.473 48.9867 834.067 49.1467 834.76C49.3067 835.44 49.3867 836.187 49.3867 837C49.3867 837.813 49.3067 838.567 49.1467 839.26C48.9867 839.94 48.7534 840.533 48.4467 841.04C48.1401 841.533 47.7734 841.92 47.3467 842.2C46.9201 842.467 46.4334 842.6 45.8867 842.6C45.3534 842.6 44.8667 842.467 44.4267 842.2C44.0001 841.92 43.6334 841.533 43.3267 841.04C43.0201 840.533 42.7867 839.94 42.6267 839.26C42.4667 838.567 42.3867 837.813 42.3867 837ZM40.6867 837C40.6867 838.4 40.9067 839.64 41.3467 840.72C41.7867 841.8 42.3934 842.653 43.1667 843.28C43.9534 843.893 44.8601 844.2 45.8867 844.2C46.9134 844.2 47.8134 843.893 48.5867 843.28C49.3734 842.653 49.9867 841.8 50.4267 840.72C50.8667 839.64 51.0867 838.4 51.0867 837C51.0867 835.6 50.8667 834.36 50.4267 833.28C49.9867 832.2 49.3734 831.353 48.5867 830.74C47.8134 830.113 46.9134 829.8 45.8867 829.8C44.8601 829.8 43.9534 830.113 43.1667 830.74C42.3934 831.353 41.7867 832.2 41.3467 833.28C40.9067 834.36 40.6867 835.6 40.6867 837ZM53.4789 832.76L56.5789 831.84V844H58.2789V829.8L53.4789 831V832.76ZM61.2828 841.2H71.9428V839.7H69.0828H68.7428H64.0828L68.0428 833.78V840.26V840.48V844H69.7428V830H69.0428L61.2828 841.2Z" fill="#CCCCCC"/>
<rect x="1" y="773" width="100" height="100" rx="50" stroke="#CCCCCC" stroke-linecap="round" stroke-dasharray="10 14"/>
<rect x="1" y="1173" width="100" height="100" rx="50" fill="#F7F7F7"/>
<path d="M20.9 1216H30.78V1214.4H24.4L28.86 1209.86C29.4067 1209.3 29.8533 1208.67 30.2 1207.96C30.5467 1207.25 30.72 1206.54 30.72 1205.82C30.72 1205.39 30.6333 1204.95 30.46 1204.48C30.2867 1204.01 30.02 1203.58 29.66 1203.18C29.3 1202.77 28.84 1202.43 28.28 1202.18C27.72 1201.91 27.0533 1201.78 26.28 1201.78C25.32 1201.78 24.4933 1201.99 23.8 1202.42C23.12 1202.83 22.6 1203.42 22.24 1204.18C21.88 1204.93 21.7 1205.8 21.7 1206.8H23.4C23.4 1206.09 23.5133 1205.49 23.74 1204.98C23.9667 1204.46 24.2933 1204.07 24.72 1203.8C25.16 1203.52 25.68 1203.38 26.28 1203.38C26.7067 1203.38 27.0867 1203.45 27.42 1203.6C27.7533 1203.75 28.0333 1203.94 28.26 1204.18C28.5 1204.42 28.68 1204.69 28.8 1204.98C28.92 1205.27 28.98 1205.57 28.98 1205.88C28.98 1206.25 28.92 1206.61 28.8 1206.96C28.6933 1207.29 28.5267 1207.63 28.3 1207.96C28.0867 1208.28 27.8267 1208.61 27.52 1208.94L20.9 1216ZM34.3867 1209C34.3867 1208.19 34.4667 1207.44 34.6267 1206.76C34.7867 1206.07 35.0201 1205.47 35.3267 1204.98C35.6334 1204.47 36.0001 1204.09 36.4267 1203.82C36.8667 1203.54 37.3534 1203.4 37.8867 1203.4C38.4334 1203.4 38.9201 1203.54 39.3467 1203.82C39.7734 1204.09 40.1401 1204.47 40.4467 1204.98C40.7534 1205.47 40.9867 1206.07 41.1467 1206.76C41.3067 1207.44 41.3867 1208.19 41.3867 1209C41.3867 1209.81 41.3067 1210.57 41.1467 1211.26C40.9867 1211.94 40.7534 1212.53 40.4467 1213.04C40.1401 1213.53 39.7734 1213.92 39.3467 1214.2C38.9201 1214.47 38.4334 1214.6 37.8867 1214.6C37.3534 1214.6 36.8667 1214.47 36.4267 1214.2C36.0001 1213.92 35.6334 1213.53 35.3267 1213.04C35.0201 1212.53 34.7867 1211.94 34.6267 1211.26C34.4667 1210.57 34.3867 1209.81 34.3867 1209ZM32.6867 1209C32.6867 1210.4 32.9067 1211.64 33.3467 1212.72C33.7867 1213.8 34.3934 1214.65 35.1667 1215.28C35.9534 1215.89 36.8601 1216.2 37.8867 1216.2C38.9134 1216.2 39.8134 1215.89 40.5867 1215.28C41.3734 1214.65 41.9867 1213.8 42.4267 1212.72C42.8667 1211.64 43.0867 1210.4 43.0867 1209C43.0867 1207.6 42.8667 1206.36 42.4267 1205.28C41.9867 1204.2 41.3734 1203.35 40.5867 1202.74C39.8134 1202.11 38.9134 1201.8 37.8867 1201.8C36.8601 1201.8 35.9534 1202.11 35.1667 1202.74C34.3934 1203.35 33.7867 1204.2 33.3467 1205.28C32.9067 1206.36 32.6867 1207.6 32.6867 1209ZM45.4789 1204.76L48.5789 1203.84V1216H50.2789V1201.8L45.4789 1203V1204.76ZM63.3628 1211.4C63.3628 1210.47 63.1828 1209.65 62.8228 1208.94C62.4628 1208.23 61.9628 1207.68 61.3228 1207.28C60.6961 1206.88 59.9828 1206.68 59.1828 1206.68C58.8361 1206.68 58.4828 1206.73 58.1228 1206.82C57.7761 1206.9 57.4361 1207.03 57.1028 1207.2L58.0428 1203.5H63.3228V1202H56.7228L54.8828 1209.46C55.3628 1209.13 55.7828 1208.87 56.1428 1208.7C56.5161 1208.51 56.8828 1208.39 57.2428 1208.32C57.6161 1208.24 58.0228 1208.2 58.4628 1208.2C59.0628 1208.2 59.5961 1208.33 60.0628 1208.6C60.5428 1208.87 60.9161 1209.24 61.1828 1209.72C61.4628 1210.2 61.6028 1210.76 61.6028 1211.4C61.6028 1212.04 61.4761 1212.6 61.2228 1213.08C60.9828 1213.56 60.6295 1213.93 60.1628 1214.2C59.6961 1214.47 59.1295 1214.6 58.4628 1214.6C57.9561 1214.6 57.4695 1214.49 57.0028 1214.28C56.5361 1214.05 56.1228 1213.77 55.7628 1213.42C55.4161 1213.06 55.1361 1212.68 54.9228 1212.28L53.4828 1213.26C53.7895 1213.79 54.1628 1214.29 54.6028 1214.74C55.0561 1215.18 55.5961 1215.53 56.2228 1215.8C56.8628 1216.07 57.6095 1216.2 58.4628 1216.2C59.1428 1216.2 59.7761 1216.1 60.3628 1215.9C60.9495 1215.7 61.4695 1215.4 61.9228 1215C62.3761 1214.6 62.7295 1214.1 62.9828 1213.5C63.2361 1212.9 63.3628 1212.2 63.3628 1211.4ZM70.808 1210.52V1208.96H79.928V1210.52H70.808Z" fill="#CCCCCC"/>
<path d="M29.4 1244H39.28V1242.4H32.9L37.36 1237.86C37.9067 1237.3 38.3533 1236.67 38.7 1235.96C39.0467 1235.25 39.22 1234.54 39.22 1233.82C39.22 1233.39 39.1333 1232.95 38.96 1232.48C38.7867 1232.01 38.52 1231.58 38.16 1231.18C37.8 1230.77 37.34 1230.43 36.78 1230.18C36.22 1229.91 35.5533 1229.78 34.78 1229.78C33.82 1229.78 32.9933 1229.99 32.3 1230.42C31.62 1230.83 31.1 1231.42 30.74 1232.18C30.38 1232.93 30.2 1233.8 30.2 1234.8H31.9C31.9 1234.09 32.0133 1233.49 32.24 1232.98C32.4667 1232.46 32.7933 1232.07 33.22 1231.8C33.66 1231.52 34.18 1231.38 34.78 1231.38C35.2067 1231.38 35.5867 1231.45 35.92 1231.6C36.2533 1231.75 36.5333 1231.94 36.76 1232.18C37 1232.42 37.18 1232.69 37.3 1232.98C37.42 1233.27 37.48 1233.57 37.48 1233.88C37.48 1234.25 37.42 1234.61 37.3 1234.96C37.1933 1235.29 37.0267 1235.63 36.8 1235.96C36.5867 1236.28 36.3267 1236.61 36.02 1236.94L29.4 1244ZM42.8867 1237C42.8867 1236.19 42.9667 1235.44 43.1267 1234.76C43.2867 1234.07 43.5201 1233.47 43.8267 1232.98C44.1334 1232.47 44.5001 1232.09 44.9267 1231.82C45.3667 1231.54 45.8534 1231.4 46.3867 1231.4C46.9334 1231.4 47.4201 1231.54 47.8467 1231.82C48.2734 1232.09 48.6401 1232.47 48.9467 1232.98C49.2534 1233.47 49.4867 1234.07 49.6467 1234.76C49.8067 1235.44 49.8867 1236.19 49.8867 1237C49.8867 1237.81 49.8067 1238.57 49.6467 1239.26C49.4867 1239.94 49.2534 1240.53 48.9467 1241.04C48.6401 1241.53 48.2734 1241.92 47.8467 1242.2C47.4201 1242.47 46.9334 1242.6 46.3867 1242.6C45.8534 1242.6 45.3667 1242.47 44.9267 1242.2C44.5001 1241.92 44.1334 1241.53 43.8267 1241.04C43.5201 1240.53 43.2867 1239.94 43.1267 1239.26C42.9667 1238.57 42.8867 1237.81 42.8867 1237ZM41.1867 1237C41.1867 1238.4 41.4067 1239.64 41.8467 1240.72C42.2867 1241.8 42.8934 1242.65 43.6667 1243.28C44.4534 1243.89 45.3601 1244.2 46.3867 1244.2C47.4134 1244.2 48.3134 1243.89 49.0867 1243.28C49.8734 1242.65 50.4867 1241.8 50.9267 1240.72C51.3667 1239.64 51.5867 1238.4 51.5867 1237C51.5867 1235.6 51.3667 1234.36 50.9267 1233.28C50.4867 1232.2 49.8734 1231.35 49.0867 1230.74C48.3134 1230.11 47.4134 1229.8 46.3867 1229.8C45.3601 1229.8 44.4534 1230.11 43.6667 1230.74C42.8934 1231.35 42.2867 1232.2 41.8467 1233.28C41.4067 1234.36 41.1867 1235.6 41.1867 1237ZM53.9789 1232.76L57.0789 1231.84V1244H58.7789V1229.8L53.9789 1231V1232.76ZM62.9828 1233.38C62.9828 1233.93 63.0761 1234.42 63.2628 1234.86C63.4495 1235.29 63.7095 1235.65 64.0428 1235.96C64.3895 1236.27 64.7961 1236.5 65.2628 1236.66C65.7428 1236.82 66.2695 1236.9 66.8428 1236.9C67.4161 1236.9 67.9361 1236.82 68.4028 1236.66C68.8828 1236.5 69.2895 1236.27 69.6228 1235.96C69.9695 1235.65 70.2361 1235.29 70.4228 1234.86C70.6095 1234.42 70.7028 1233.93 70.7028 1233.38C70.7028 1232.71 70.5295 1232.11 70.1828 1231.58C69.8495 1231.03 69.3895 1230.6 68.8028 1230.28C68.2295 1229.96 67.5761 1229.8 66.8428 1229.8C66.1095 1229.8 65.4495 1229.96 64.8628 1230.28C64.2895 1230.6 63.8295 1231.03 63.4828 1231.58C63.1495 1232.11 62.9828 1232.71 62.9828 1233.38ZM64.6028 1233.58C64.6028 1233.14 64.6961 1232.75 64.8828 1232.4C65.0828 1232.05 65.3495 1231.79 65.6828 1231.6C66.0295 1231.4 66.4161 1231.3 66.8428 1231.3C67.2828 1231.3 67.6695 1231.4 68.0028 1231.6C68.3361 1231.79 68.5961 1232.05 68.7828 1232.4C68.9828 1232.75 69.0828 1233.14 69.0828 1233.58C69.0828 1234.02 68.9761 1234.41 68.7628 1234.74C68.5628 1235.07 68.2895 1235.33 67.9428 1235.52C67.6095 1235.71 67.2428 1235.8 66.8428 1235.8C66.4428 1235.8 66.0695 1235.71 65.7228 1235.52C65.3895 1235.33 65.1161 1235.07 64.9028 1234.74C64.7028 1234.41 64.6028 1234.02 64.6028 1233.58ZM62.4828 1240.2C62.4828 1240.75 62.5895 1241.26 62.8028 1241.74C63.0295 1242.22 63.3361 1242.65 63.7228 1243.02C64.1228 1243.39 64.5828 1243.69 65.1028 1243.9C65.6361 1244.1 66.2161 1244.2 66.8428 1244.2C67.4695 1244.2 68.0428 1244.1 68.5628 1243.9C69.0961 1243.69 69.5561 1243.39 69.9428 1243.02C70.3428 1242.65 70.6495 1242.22 70.8628 1241.74C71.0895 1241.26 71.2028 1240.75 71.2028 1240.2C71.2028 1239.56 71.0828 1238.99 70.8428 1238.5C70.6161 1237.99 70.2961 1237.57 69.8828 1237.24C69.4828 1236.89 69.0161 1236.63 68.4828 1236.46C67.9628 1236.29 67.4161 1236.2 66.8428 1236.2C66.2695 1236.2 65.7161 1236.29 65.1828 1236.46C64.6628 1236.63 64.1961 1236.89 63.7828 1237.24C63.3828 1237.57 63.0628 1237.99 62.8228 1238.5C62.5961 1238.99 62.4828 1239.56 62.4828 1240.2ZM64.1028 1240C64.1028 1239.49 64.2295 1239.04 64.4828 1238.64C64.7495 1238.23 65.0895 1237.9 65.5028 1237.66C65.9295 1237.42 66.3761 1237.3 66.8428 1237.3C67.3095 1237.3 67.7495 1237.42 68.1628 1237.66C68.5895 1237.9 68.9295 1238.23 69.1828 1238.64C69.4495 1239.04 69.5828 1239.49 69.5828 1240C69.5828 1240.57 69.4495 1241.06 69.1828 1241.46C68.9295 1241.86 68.5895 1242.17 68.1628 1242.38C67.7495 1242.59 67.3095 1242.7 66.8428 1242.7C66.3761 1242.7 65.9295 1242.59 65.5028 1242.38C65.0895 1242.17 64.7495 1241.86 64.4828 1241.46C64.2295 1241.06 64.1028 1240.57 64.1028 1240Z" fill="#CCCCCC"/>
<rect x="1" y="1173" width="100" height="100" rx="50" stroke="#CCCCCC" stroke-linecap="round" stroke-dasharray="10 14"/>
<rect x="1" y="1573" width="100" height="100" rx="50" fill="#F7F7F7"/>
<path d="M20.9 1616H30.78V1614.4H24.4L28.86 1609.86C29.4067 1609.3 29.8533 1608.67 30.2 1607.96C30.5467 1607.25 30.72 1606.54 30.72 1605.82C30.72 1605.39 30.6333 1604.95 30.46 1604.48C30.2867 1604.01 30.02 1603.58 29.66 1603.18C29.3 1602.77 28.84 1602.43 28.28 1602.18C27.72 1601.91 27.0533 1601.78 26.28 1601.78C25.32 1601.78 24.4933 1601.99 23.8 1602.42C23.12 1602.83 22.6 1603.42 22.24 1604.18C21.88 1604.93 21.7 1605.8 21.7 1606.8H23.4C23.4 1606.09 23.5133 1605.49 23.74 1604.98C23.9667 1604.46 24.2933 1604.07 24.72 1603.8C25.16 1603.52 25.68 1603.38 26.28 1603.38C26.7067 1603.38 27.0867 1603.45 27.42 1603.6C27.7533 1603.75 28.0333 1603.94 28.26 1604.18C28.5 1604.42 28.68 1604.69 28.8 1604.98C28.92 1605.27 28.98 1605.57 28.98 1605.88C28.98 1606.25 28.92 1606.61 28.8 1606.96C28.6933 1607.29 28.5267 1607.63 28.3 1607.96C28.0867 1608.28 27.8267 1608.61 27.52 1608.94L20.9 1616ZM34.3867 1609C34.3867 1608.19 34.4667 1607.44 34.6267 1606.76C34.7867 1606.07 35.0201 1605.47 35.3267 1604.98C35.6334 1604.47 36.0001 1604.09 36.4267 1603.82C36.8667 1603.54 37.3534 1603.4 37.8867 1603.4C38.4334 1603.4 38.9201 1603.54 39.3467 1603.82C39.7734 1604.09 40.1401 1604.47 40.4467 1604.98C40.7534 1605.47 40.9867 1606.07 41.1467 1606.76C41.3067 1607.44 41.3867 1608.19 41.3867 1609C41.3867 1609.81 41.3067 1610.57 41.1467 1611.26C40.9867 1611.94 40.7534 1612.53 40.4467 1613.04C40.1401 1613.53 39.7734 1613.92 39.3467 1614.2C38.9201 1614.47 38.4334 1614.6 37.8867 1614.6C37.3534 1614.6 36.8667 1614.47 36.4267 1614.2C36.0001 1613.92 35.6334 1613.53 35.3267 1613.04C35.0201 1612.53 34.7867 1611.94 34.6267 1611.26C34.4667 1610.57 34.3867 1609.81 34.3867 1609ZM32.6867 1609C32.6867 1610.4 32.9067 1611.64 33.3467 1612.72C33.7867 1613.8 34.3934 1614.65 35.1667 1615.28C35.9534 1615.89 36.8601 1616.2 37.8867 1616.2C38.9134 1616.2 39.8134 1615.89 40.5867 1615.28C41.3734 1614.65 41.9867 1613.8 42.4267 1612.72C42.8667 1611.64 43.0867 1610.4 43.0867 1609C43.0867 1607.6 42.8667 1606.36 42.4267 1605.28C41.9867 1604.2 41.3734 1603.35 40.5867 1602.74C39.8134 1602.11 38.9134 1601.8 37.8867 1601.8C36.8601 1601.8 35.9534 1602.11 35.1667 1602.74C34.3934 1603.35 33.7867 1604.2 33.3467 1605.28C32.9067 1606.36 32.6867 1607.6 32.6867 1609ZM45.4789 1604.76L48.5789 1603.84V1616H50.2789V1601.8L45.4789 1603V1604.76ZM61.7828 1606.6C61.7828 1607.24 61.6428 1607.81 61.3628 1608.3C61.0961 1608.79 60.7228 1609.19 60.2428 1609.48C59.7761 1609.76 59.2428 1609.9 58.6428 1609.9C58.0428 1609.9 57.5028 1609.76 57.0228 1609.48C56.5561 1609.19 56.1828 1608.79 55.9028 1608.3C55.6361 1607.81 55.5028 1607.24 55.5028 1606.6C55.5028 1605.96 55.6361 1605.4 55.9028 1604.92C56.1828 1604.43 56.5561 1604.04 57.0228 1603.76C57.5028 1603.48 58.0428 1603.34 58.6428 1603.34C59.2428 1603.34 59.7761 1603.48 60.2428 1603.76C60.7228 1604.04 61.0961 1604.43 61.3628 1604.92C61.6428 1605.4 61.7828 1605.96 61.7828 1606.6ZM57.8028 1616L62.5228 1609.5C62.7895 1609.13 63.0028 1608.69 63.1628 1608.2C63.3228 1607.71 63.4028 1607.17 63.4028 1606.6C63.4028 1605.64 63.1895 1604.8 62.7628 1604.08C62.3495 1603.36 61.7828 1602.8 61.0628 1602.4C60.3561 1602 59.5495 1601.8 58.6428 1601.8C57.7495 1601.8 56.9428 1602 56.2228 1602.4C55.5028 1602.8 54.9295 1603.36 54.5028 1604.08C54.0895 1604.8 53.8828 1605.64 53.8828 1606.6C53.8828 1607.24 53.9895 1607.84 54.2028 1608.4C54.4161 1608.95 54.7095 1609.43 55.0828 1609.84C55.4695 1610.25 55.9095 1610.57 56.4028 1610.8C56.9095 1611.03 57.4495 1611.14 58.0228 1611.14C58.4761 1611.14 58.8761 1611.09 59.2228 1610.98C59.5828 1610.87 59.8961 1610.65 60.1628 1610.32L60.0428 1610.22L55.6628 1616H57.8028ZM71.0423 1610.52V1608.96H80.1623V1610.52H71.0423Z" fill="#CCCCCC"/>
<path d="M29.4 1644H39.28V1642.4H32.9L37.36 1637.86C37.9067 1637.3 38.3533 1636.67 38.7 1635.96C39.0467 1635.25 39.22 1634.54 39.22 1633.82C39.22 1633.39 39.1333 1632.95 38.96 1632.48C38.7867 1632.01 38.52 1631.58 38.16 1631.18C37.8 1630.77 37.34 1630.43 36.78 1630.18C36.22 1629.91 35.5533 1629.78 34.78 1629.78C33.82 1629.78 32.9933 1629.99 32.3 1630.42C31.62 1630.83 31.1 1631.42 30.74 1632.18C30.38 1632.93 30.2 1633.8 30.2 1634.8H31.9C31.9 1634.09 32.0133 1633.49 32.24 1632.98C32.4667 1632.46 32.7933 1632.07 33.22 1631.8C33.66 1631.52 34.18 1631.38 34.78 1631.38C35.2067 1631.38 35.5867 1631.45 35.92 1631.6C36.2533 1631.75 36.5333 1631.94 36.76 1632.18C37 1632.42 37.18 1632.69 37.3 1632.98C37.42 1633.27 37.48 1633.57 37.48 1633.88C37.48 1634.25 37.42 1634.61 37.3 1634.96C37.1933 1635.29 37.0267 1635.63 36.8 1635.96C36.5867 1636.28 36.3267 1636.61 36.02 1636.94L29.4 1644ZM42.8867 1637C42.8867 1636.19 42.9667 1635.44 43.1267 1634.76C43.2867 1634.07 43.5201 1633.47 43.8267 1632.98C44.1334 1632.47 44.5001 1632.09 44.9267 1631.82C45.3667 1631.54 45.8534 1631.4 46.3867 1631.4C46.9334 1631.4 47.4201 1631.54 47.8467 1631.82C48.2734 1632.09 48.6401 1632.47 48.9467 1632.98C49.2534 1633.47 49.4867 1634.07 49.6467 1634.76C49.8067 1635.44 49.8867 1636.19 49.8867 1637C49.8867 1637.81 49.8067 1638.57 49.6467 1639.26C49.4867 1639.94 49.2534 1640.53 48.9467 1641.04C48.6401 1641.53 48.2734 1641.92 47.8467 1642.2C47.4201 1642.47 46.9334 1642.6 46.3867 1642.6C45.8534 1642.6 45.3667 1642.47 44.9267 1642.2C44.5001 1641.92 44.1334 1641.53 43.8267 1641.04C43.5201 1640.53 43.2867 1639.94 43.1267 1639.26C42.9667 1638.57 42.8867 1637.81 42.8867 1637ZM41.1867 1637C41.1867 1638.4 41.4067 1639.64 41.8467 1640.72C42.2867 1641.8 42.8934 1642.65 43.6667 1643.28C44.4534 1643.89 45.3601 1644.2 46.3867 1644.2C47.4134 1644.2 48.3134 1643.89 49.0867 1643.28C49.8734 1642.65 50.4867 1641.8 50.9267 1640.72C51.3667 1639.64 51.5867 1638.4 51.5867 1637C51.5867 1635.6 51.3667 1634.36 50.9267 1633.28C50.4867 1632.2 49.8734 1631.35 49.0867 1630.74C48.3134 1630.11 47.4134 1629.8 46.3867 1629.8C45.3601 1629.8 44.4534 1630.11 43.6667 1630.74C42.8934 1631.35 42.2867 1632.2 41.8467 1633.28C41.4067 1634.36 41.1867 1635.6 41.1867 1637ZM52.7789 1644H62.6589V1642.4H56.2789L60.7389 1637.86C61.2856 1637.3 61.7322 1636.67 62.0789 1635.96C62.4256 1635.25 62.5989 1634.54 62.5989 1633.82C62.5989 1633.39 62.5122 1632.95 62.3389 1632.48C62.1656 1632.01 61.8989 1631.58 61.5389 1631.18C61.1789 1630.77 60.7189 1630.43 60.1589 1630.18C59.5989 1629.91 58.9322 1629.78 58.1589 1629.78C57.1989 1629.78 56.3722 1629.99 55.6789 1630.42C54.9989 1630.83 54.4789 1631.42 54.1189 1632.18C53.7589 1632.93 53.5789 1633.8 53.5789 1634.8H55.2789C55.2789 1634.09 55.3922 1633.49 55.6189 1632.98C55.8456 1632.46 56.1722 1632.07 56.5989 1631.8C57.0389 1631.52 57.5589 1631.38 58.1589 1631.38C58.5856 1631.38 58.9656 1631.45 59.2989 1631.6C59.6322 1631.75 59.9122 1631.94 60.1389 1632.18C60.3789 1632.42 60.5589 1632.69 60.6789 1632.98C60.7989 1633.27 60.8589 1633.57 60.8589 1633.88C60.8589 1634.25 60.7989 1634.61 60.6789 1634.96C60.5722 1635.29 60.4056 1635.63 60.1789 1635.96C59.9656 1636.28 59.7056 1636.61 59.3989 1636.94L52.7789 1644ZM65.3656 1632.76L68.4656 1631.84V1644H70.1656V1629.8L65.3656 1631V1632.76Z" fill="#CCCCCC"/>
<rect x="1" y="1573" width="100" height="100" rx="50" stroke="#CCCCCC" stroke-linecap="round" stroke-dasharray="10 14"/>
<rect x="1" y="1973" width="100" height="100" rx="50" fill="#F7F7F7"/>
<path d="M27.9 2030H37.78V2028.4H31.4L35.86 2023.86C36.4067 2023.3 36.8533 2022.67 37.2 2021.96C37.5467 2021.25 37.72 2020.54 37.72 2019.82C37.72 2019.39 37.6333 2018.95 37.46 2018.48C37.2867 2018.01 37.02 2017.58 36.66 2017.18C36.3 2016.77 35.84 2016.43 35.28 2016.18C34.72 2015.91 34.0533 2015.78 33.28 2015.78C32.32 2015.78 31.4933 2015.99 30.8 2016.42C30.12 2016.83 29.6 2017.42 29.24 2018.18C28.88 2018.93 28.7 2019.8 28.7 2020.8H30.4C30.4 2020.09 30.5133 2019.49 30.74 2018.98C30.9667 2018.46 31.2933 2018.07 31.72 2017.8C32.16 2017.52 32.68 2017.38 33.28 2017.38C33.7067 2017.38 34.0867 2017.45 34.42 2017.6C34.7533 2017.75 35.0333 2017.94 35.26 2018.18C35.5 2018.42 35.68 2018.69 35.8 2018.98C35.92 2019.27 35.98 2019.57 35.98 2019.88C35.98 2020.25 35.92 2020.61 35.8 2020.96C35.6933 2021.29 35.5267 2021.63 35.3 2021.96C35.0867 2022.28 34.8267 2022.61 34.52 2022.94L27.9 2030ZM41.3867 2023C41.3867 2022.19 41.4667 2021.44 41.6267 2020.76C41.7867 2020.07 42.0201 2019.47 42.3267 2018.98C42.6334 2018.47 43.0001 2018.09 43.4267 2017.82C43.8667 2017.54 44.3534 2017.4 44.8867 2017.4C45.4334 2017.4 45.9201 2017.54 46.3467 2017.82C46.7734 2018.09 47.1401 2018.47 47.4467 2018.98C47.7534 2019.47 47.9867 2020.07 48.1467 2020.76C48.3067 2021.44 48.3867 2022.19 48.3867 2023C48.3867 2023.81 48.3067 2024.57 48.1467 2025.26C47.9867 2025.94 47.7534 2026.53 47.4467 2027.04C47.1401 2027.53 46.7734 2027.92 46.3467 2028.2C45.9201 2028.47 45.4334 2028.6 44.8867 2028.6C44.3534 2028.6 43.8667 2028.47 43.4267 2028.2C43.0001 2027.92 42.6334 2027.53 42.3267 2027.04C42.0201 2026.53 41.7867 2025.94 41.6267 2025.26C41.4667 2024.57 41.3867 2023.81 41.3867 2023ZM39.6867 2023C39.6867 2024.4 39.9067 2025.64 40.3467 2026.72C40.7867 2027.8 41.3934 2028.65 42.1667 2029.28C42.9534 2029.89 43.8601 2030.2 44.8867 2030.2C45.9134 2030.2 46.8134 2029.89 47.5867 2029.28C48.3734 2028.65 48.9867 2027.8 49.4267 2026.72C49.8667 2025.64 50.0867 2024.4 50.0867 2023C50.0867 2021.6 49.8667 2020.36 49.4267 2019.28C48.9867 2018.2 48.3734 2017.35 47.5867 2016.74C46.8134 2016.11 45.9134 2015.8 44.8867 2015.8C43.8601 2015.8 42.9534 2016.11 42.1667 2016.74C41.3934 2017.35 40.7867 2018.2 40.3467 2019.28C39.9067 2020.36 39.6867 2021.6 39.6867 2023ZM51.2789 2030H61.1589V2028.4H54.7789L59.2389 2023.86C59.7856 2023.3 60.2322 2022.67 60.5789 2021.96C60.9256 2021.25 61.0989 2020.54 61.0989 2019.82C61.0989 2019.39 61.0122 2018.95 60.8389 2018.48C60.6656 2018.01 60.3989 2017.58 60.0389 2017.18C59.6789 2016.77 59.2189 2016.43 58.6589 2016.18C58.0989 2015.91 57.4322 2015.78 56.6589 2015.78C55.6989 2015.78 54.8722 2015.99 54.1789 2016.42C53.4989 2016.83 52.9789 2017.42 52.6189 2018.18C52.2589 2018.93 52.0789 2019.8 52.0789 2020.8H53.7789C53.7789 2020.09 53.8922 2019.49 54.1189 2018.98C54.3456 2018.46 54.6722 2018.07 55.0989 2017.8C55.5389 2017.52 56.0589 2017.38 56.6589 2017.38C57.0856 2017.38 57.4656 2017.45 57.7989 2017.6C58.1322 2017.75 58.4122 2017.94 58.6389 2018.18C58.8789 2018.42 59.0589 2018.69 59.1789 2018.98C59.2989 2019.27 59.3589 2019.57 59.3589 2019.88C59.3589 2020.25 59.2989 2020.61 59.1789 2020.96C59.0722 2021.29 58.9056 2021.63 58.6789 2021.96C58.4656 2022.28 58.2056 2022.61 57.8989 2022.94L51.2789 2030ZM62.6656 2030H72.5456V2028.4H66.1656L70.6256 2023.86C71.1723 2023.3 71.619 2022.67 71.9656 2021.96C72.3123 2021.25 72.4856 2020.54 72.4856 2019.82C72.4856 2019.39 72.399 2018.95 72.2256 2018.48C72.0523 2018.01 71.7856 2017.58 71.4256 2017.18C71.0656 2016.77 70.6056 2016.43 70.0456 2016.18C69.4856 2015.91 68.819 2015.78 68.0456 2015.78C67.0856 2015.78 66.259 2015.99 65.5656 2016.42C64.8856 2016.83 64.3656 2017.42 64.0056 2018.18C63.6456 2018.93 63.4656 2019.8 63.4656 2020.8H65.1656C65.1656 2020.09 65.279 2019.49 65.5056 2018.98C65.7323 2018.46 66.059 2018.07 66.4856 2017.8C66.9256 2017.52 67.4456 2017.38 68.0456 2017.38C68.4723 2017.38 68.8523 2017.45 69.1856 2017.6C69.519 2017.75 69.799 2017.94 70.0256 2018.18C70.2656 2018.42 70.4456 2018.69 70.5656 2018.98C70.6856 2019.27 70.7456 2019.57 70.7456 2019.88C70.7456 2020.25 70.6856 2020.61 70.5656 2020.96C70.459 2021.29 70.2923 2021.63 70.0656 2021.96C69.8523 2022.28 69.5923 2022.61 69.2856 2022.94L62.6656 2030Z" fill="#CCCCCC"/>
<rect x="1" y="1973" width="100" height="100" rx="50" stroke="#CCCCCC" stroke-linecap="round" stroke-dasharray="10 14"/>
<rect x="1.5" y="373.5" width="99" height="99" rx="49.5" fill="#F7F7F7"/>
<path d="M19.4 416H29.28V414.4H22.9L27.36 409.86C27.9067 409.3 28.3533 408.667 28.7 407.96C29.0467 407.253 29.22 406.54 29.22 405.82C29.22 405.393 29.1333 404.947 28.96 404.48C28.7867 404.013 28.52 403.58 28.16 403.18C27.8 402.767 27.34 402.433 26.78 402.18C26.22 401.913 25.5533 401.78 24.78 401.78C23.82 401.78 22.9933 401.993 22.3 402.42C21.62 402.833 21.1 403.42 20.74 404.18C20.38 404.927 20.2 405.8 20.2 406.8H21.9C21.9 406.093 22.0133 405.487 22.24 404.98C22.4667 404.46 22.7933 404.067 23.22 403.8C23.66 403.52 24.18 403.38 24.78 403.38C25.2067 403.38 25.5867 403.453 25.92 403.6C26.2533 403.747 26.5333 403.94 26.76 404.18C27 404.42 27.18 404.687 27.3 404.98C27.42 405.273 27.48 405.573 27.48 405.88C27.48 406.253 27.42 406.613 27.3 406.96C27.1933 407.293 27.0267 407.627 26.8 407.96C26.5867 408.28 26.3267 408.607 26.02 408.94L19.4 416ZM32.8867 409C32.8867 408.187 32.9667 407.44 33.1267 406.76C33.2867 406.067 33.5201 405.473 33.8267 404.98C34.1334 404.473 34.5001 404.087 34.9267 403.82C35.3667 403.54 35.8534 403.4 36.3867 403.4C36.9334 403.4 37.4201 403.54 37.8467 403.82C38.2734 404.087 38.6401 404.473 38.9467 404.98C39.2534 405.473 39.4867 406.067 39.6467 406.76C39.8067 407.44 39.8867 408.187 39.8867 409C39.8867 409.813 39.8067 410.567 39.6467 411.26C39.4867 411.94 39.2534 412.533 38.9467 413.04C38.6401 413.533 38.2734 413.92 37.8467 414.2C37.4201 414.467 36.9334 414.6 36.3867 414.6C35.8534 414.6 35.3667 414.467 34.9267 414.2C34.5001 413.92 34.1334 413.533 33.8267 413.04C33.5201 412.533 33.2867 411.94 33.1267 411.26C32.9667 410.567 32.8867 409.813 32.8867 409ZM31.1867 409C31.1867 410.4 31.4067 411.64 31.8467 412.72C32.2867 413.8 32.8934 414.653 33.6667 415.28C34.4534 415.893 35.3601 416.2 36.3867 416.2C37.4134 416.2 38.3134 415.893 39.0867 415.28C39.8734 414.653 40.4867 413.8 40.9267 412.72C41.3667 411.64 41.5867 410.4 41.5867 409C41.5867 407.6 41.3667 406.36 40.9267 405.28C40.4867 404.2 39.8734 403.353 39.0867 402.74C38.3134 402.113 37.4134 401.8 36.3867 401.8C35.3601 401.8 34.4534 402.113 33.6667 402.74C32.8934 403.353 32.2867 404.2 31.8467 405.28C31.4067 406.36 31.1867 407.6 31.1867 409ZM44.8789 409C44.8789 408.187 44.9589 407.44 45.1189 406.76C45.2789 406.067 45.5122 405.473 45.8189 404.98C46.1256 404.473 46.4922 404.087 46.9189 403.82C47.3589 403.54 47.8456 403.4 48.3789 403.4C48.9256 403.4 49.4122 403.54 49.8389 403.82C50.2656 404.087 50.6322 404.473 50.9389 404.98C51.2456 405.473 51.4789 406.067 51.6389 406.76C51.7989 407.44 51.8789 408.187 51.8789 409C51.8789 409.813 51.7989 410.567 51.6389 411.26C51.4789 411.94 51.2456 412.533 50.9389 413.04C50.6322 413.533 50.2656 413.92 49.8389 414.2C49.4122 414.467 48.9256 414.6 48.3789 414.6C47.8456 414.6 47.3589 414.467 46.9189 414.2C46.4922 413.92 46.1256 413.533 45.8189 413.04C45.5122 412.533 45.2789 411.94 45.1189 411.26C44.9589 410.567 44.8789 409.813 44.8789 409ZM43.1789 409C43.1789 410.4 43.3989 411.64 43.8389 412.72C44.2789 413.8 44.8856 414.653 45.6589 415.28C46.4456 415.893 47.3522 416.2 48.3789 416.2C49.4056 416.2 50.3056 415.893 51.0789 415.28C51.8656 414.653 52.4789 413.8 52.9189 412.72C53.3589 411.64 53.5789 410.4 53.5789 409C53.5789 407.6 53.3589 406.36 52.9189 405.28C52.4789 404.2 51.8656 403.353 51.0789 402.74C50.3056 402.113 49.4056 401.8 48.3789 401.8C47.3522 401.8 46.4456 402.113 45.6589 402.74C44.8856 403.353 44.2789 404.2 43.8389 405.28C43.3989 406.36 43.1789 407.6 43.1789 409ZM54.7711 416H64.6511V414.4H58.2711L62.7311 409.86C63.2778 409.3 63.7244 408.667 64.0711 407.96C64.4178 407.253 64.5911 406.54 64.5911 405.82C64.5911 405.393 64.5044 404.947 64.3311 404.48C64.1578 404.013 63.8911 403.58 63.5311 403.18C63.1711 402.767 62.7111 402.433 62.1511 402.18C61.5911 401.913 60.9244 401.78 60.1511 401.78C59.1911 401.78 58.3644 401.993 57.6711 402.42C56.9911 402.833 56.4711 403.42 56.1111 404.18C55.7511 404.927 55.5711 405.8 55.5711 406.8H57.2711C57.2711 406.093 57.3844 405.487 57.6111 404.98C57.8378 404.46 58.1644 404.067 58.5911 403.8C59.0311 403.52 59.5511 403.38 60.1511 403.38C60.5778 403.38 60.9578 403.453 61.2911 403.6C61.6244 403.747 61.9044 403.94 62.1311 404.18C62.3711 404.42 62.5511 404.687 62.6711 404.98C62.7911 405.273 62.8511 405.573 62.8511 405.88C62.8511 406.253 62.7911 406.613 62.6711 406.96C62.5644 407.293 62.3978 407.627 62.1711 407.96C61.9578 408.28 61.6978 408.607 61.3911 408.94L54.7711 416ZM72.3939 410.52V408.96H81.5139V410.52H72.3939Z" fill="#CCCCCC"/>
<path d="M27.9 444H37.78V442.4H31.4L35.86 437.86C36.4067 437.3 36.8533 436.667 37.2 435.96C37.5467 435.253 37.72 434.54 37.72 433.82C37.72 433.393 37.6333 432.947 37.46 432.48C37.2867 432.013 37.02 431.58 36.66 431.18C36.3 430.767 35.84 430.433 35.28 430.18C34.72 429.913 34.0533 429.78 33.28 429.78C32.32 429.78 31.4933 429.993 30.8 430.42C30.12 430.833 29.6 431.42 29.24 432.18C28.88 432.927 28.7 433.8 28.7 434.8H30.4C30.4 434.093 30.5133 433.487 30.74 432.98C30.9667 432.46 31.2933 432.067 31.72 431.8C32.16 431.52 32.68 431.38 33.28 431.38C33.7067 431.38 34.0867 431.453 34.42 431.6C34.7533 431.747 35.0333 431.94 35.26 432.18C35.5 432.42 35.68 432.687 35.8 432.98C35.92 433.273 35.98 433.573 35.98 433.88C35.98 434.253 35.92 434.613 35.8 434.96C35.6933 435.293 35.5267 435.627 35.3 435.96C35.0867 436.28 34.8267 436.607 34.52 436.94L27.9 444ZM41.3867 437C41.3867 436.187 41.4667 435.44 41.6267 434.76C41.7867 434.067 42.0201 433.473 42.3267 432.98C42.6334 432.473 43.0001 432.087 43.4267 431.82C43.8667 431.54 44.3534 431.4 44.8867 431.4C45.4334 431.4 45.9201 431.54 46.3467 431.82C46.7734 432.087 47.1401 432.473 47.4467 432.98C47.7534 433.473 47.9867 434.067 48.1467 434.76C48.3067 435.44 48.3867 436.187 48.3867 437C48.3867 437.813 48.3067 438.567 48.1467 439.26C47.9867 439.94 47.7534 440.533 47.4467 441.04C47.1401 441.533 46.7734 441.92 46.3467 442.2C45.9201 442.467 45.4334 442.6 44.8867 442.6C44.3534 442.6 43.8667 442.467 43.4267 442.2C43.0001 441.92 42.6334 441.533 42.3267 441.04C42.0201 440.533 41.7867 439.94 41.6267 439.26C41.4667 438.567 41.3867 437.813 41.3867 437ZM39.6867 437C39.6867 438.4 39.9067 439.64 40.3467 440.72C40.7867 441.8 41.3934 442.653 42.1667 443.28C42.9534 443.893 43.8601 444.2 44.8867 444.2C45.9134 444.2 46.8134 443.893 47.5867 443.28C48.3734 442.653 48.9867 441.8 49.4267 440.72C49.8667 439.64 50.0867 438.4 50.0867 437C50.0867 435.6 49.8667 434.36 49.4267 433.28C48.9867 432.2 48.3734 431.353 47.5867 430.74C46.8134 430.113 45.9134 429.8 44.8867 429.8C43.8601 429.8 42.9534 430.113 42.1667 430.74C41.3934 431.353 40.7867 432.2 40.3467 433.28C39.9067 434.36 39.6867 435.6 39.6867 437ZM53.3789 437C53.3789 436.187 53.4589 435.44 53.6189 434.76C53.7789 434.067 54.0122 433.473 54.3189 432.98C54.6256 432.473 54.9922 432.087 55.4189 431.82C55.8589 431.54 56.3456 431.4 56.8789 431.4C57.4256 431.4 57.9122 431.54 58.3389 431.82C58.7656 432.087 59.1322 432.473 59.4389 432.98C59.7456 433.473 59.9789 434.067 60.1389 434.76C60.2989 435.44 60.3789 436.187 60.3789 437C60.3789 437.813 60.2989 438.567 60.1389 439.26C59.9789 439.94 59.7456 440.533 59.4389 441.04C59.1322 441.533 58.7656 441.92 58.3389 442.2C57.9122 442.467 57.4256 442.6 56.8789 442.6C56.3456 442.6 55.8589 442.467 55.4189 442.2C54.9922 441.92 54.6256 441.533 54.3189 441.04C54.0122 440.533 53.7789 439.94 53.6189 439.26C53.4589 438.567 53.3789 437.813 53.3789 437ZM51.6789 437C51.6789 438.4 51.8989 439.64 52.3389 440.72C52.7789 441.8 53.3856 442.653 54.1589 443.28C54.9456 443.893 55.8522 444.2 56.8789 444.2C57.9056 444.2 58.8056 443.893 59.5789 443.28C60.3656 442.653 60.9789 441.8 61.4189 440.72C61.8589 439.64 62.0789 438.4 62.0789 437C62.0789 435.6 61.8589 434.36 61.4189 433.28C60.9789 432.2 60.3656 431.353 59.5789 430.74C58.8056 430.113 57.9056 429.8 56.8789 429.8C55.8522 429.8 54.9456 430.113 54.1589 430.74C53.3856 431.353 52.7789 432.2 52.3389 433.28C51.8989 434.36 51.6789 435.6 51.6789 437ZM64.4711 433.38C64.4711 433.927 64.5644 434.42 64.7511 434.86C64.9378 435.287 65.1978 435.653 65.5311 435.96C65.8778 436.267 66.2844 436.5 66.7511 436.66C67.2311 436.82 67.7578 436.9 68.3311 436.9C68.9044 436.9 69.4244 436.82 69.8911 436.66C70.3711 436.5 70.7778 436.267 71.1111 435.96C71.4578 435.653 71.7244 435.287 71.9111 434.86C72.0978 434.42 72.1911 433.927 72.1911 433.38C72.1911 432.713 72.0178 432.113 71.6711 431.58C71.3378 431.033 70.8778 430.6 70.2911 430.28C69.7178 429.96 69.0644 429.8 68.3311 429.8C67.5978 429.8 66.9378 429.96 66.3511 430.28C65.7778 430.6 65.3178 431.033 64.9711 431.58C64.6378 432.113 64.4711 432.713 64.4711 433.38ZM66.0911 433.58C66.0911 433.14 66.1844 432.747 66.3711 432.4C66.5711 432.053 66.8378 431.787 67.1711 431.6C67.5178 431.4 67.9044 431.3 68.3311 431.3C68.7711 431.3 69.1578 431.4 69.4911 431.6C69.8244 431.787 70.0844 432.053 70.2711 432.4C70.4711 432.747 70.5711 433.14 70.5711 433.58C70.5711 434.02 70.4644 434.407 70.2511 434.74C70.0511 435.073 69.7778 435.333 69.4311 435.52C69.0978 435.707 68.7311 435.8 68.3311 435.8C67.9311 435.8 67.5578 435.707 67.2111 435.52C66.8778 435.333 66.6044 435.073 66.3911 434.74C66.1911 434.407 66.0911 434.02 66.0911 433.58ZM63.9711 440.2C63.9711 440.747 64.0778 441.26 64.2911 441.74C64.5178 442.22 64.8244 442.647 65.2111 443.02C65.6111 443.393 66.0711 443.687 66.5911 443.9C67.1244 444.1 67.7044 444.2 68.3311 444.2C68.9578 444.2 69.5311 444.1 70.0511 443.9C70.5844 443.687 71.0444 443.393 71.4311 443.02C71.8311 442.647 72.1378 442.22 72.3511 441.74C72.5778 441.26 72.6911 440.747 72.6911 440.2C72.6911 439.56 72.5711 438.993 72.3311 438.5C72.1044 437.993 71.7844 437.573 71.3711 437.24C70.9711 436.893 70.5044 436.633 69.9711 436.46C69.4511 436.287 68.9044 436.2 68.3311 436.2C67.7578 436.2 67.2044 436.287 66.6711 436.46C66.1511 436.633 65.6844 436.893 65.2711 437.24C64.8711 437.573 64.5511 437.993 64.3111 438.5C64.0844 438.993 63.9711 439.56 63.9711 440.2ZM65.5911 440C65.5911 439.493 65.7178 439.04 65.9711 438.64C66.2378 438.227 66.5778 437.9 66.9911 437.66C67.4178 437.42 67.8644 437.3 68.3311 437.3C68.7978 437.3 69.2378 437.42 69.6511 437.66C70.0778 437.9 70.4178 438.227 70.6711 438.64C70.9378 439.04 71.0711 439.493 71.0711 440C71.0711 440.573 70.9378 441.06 70.6711 441.46C70.4178 441.86 70.0778 442.167 69.6511 442.38C69.2378 442.593 68.7978 442.7 68.3311 442.7C67.8644 442.7 67.4178 442.593 66.9911 442.38C66.5778 442.167 66.2378 441.86 65.9711 441.46C65.7178 441.06 65.5911 440.573 65.5911 440Z" fill="#CCCCCC"/>
<rect x="1.5" y="373.5" width="99" height="99" rx="49.5" stroke="#CCCCCC" stroke-linecap="round" stroke-dasharray="10 14"/>
</svg>
