<svg width="24" height="24" viewBox="0 0 24 24" fill="none" xmlns="http://www.w3.org/2000/svg">
<path d="M24 14.5513C24 8.55134 21 4.26562 17.1429 4.26562C14.1429 4.26562 12 7.6942 12 7.6942C10.2857 10.2656 10.2857 14.9799 12.8571 9.83705C12.8571 9.83705 15 6.40848 17.1429 6.40848C20.1429 6.40848 21.7237 11.5513 21.7237 14.5513C21.7237 15.4085 21.4286 17.1228 19.7143 17.1228V19.6942C21.4286 19.6942 24 18.4085 24 14.5513Z" fill="url(#paint0_radial_1_249)"/>
<path d="M6.85714 4.26562V6.83705C4.11429 7.17991 2.57143 11.5513 2.57143 14.5513C2.57143 15.4085 3 17.1228 4.28571 17.1228C6.42857 17.1228 8.89262 12.3913 11.1429 8.9307C12.3374 7.09359 13.5265 8.67099 12.6198 10.2656C10.4715 14.044 8.3203 19.6942 4.28571 19.6942C2.57143 19.6942 0 18.4085 0 14.5513C0 6.83705 4.71429 4.26562 6.85714 4.26562Z" fill="url(#paint1_radial_1_249)"/>
<path d="M19.7143 17.1228C16.7143 17.1228 13.2857 4.26562 6.85712 4.26562V6.83705C12 6.83705 14.1428 19.6942 19.7143 19.6942V17.1228Z" fill="#0768E1"/>
<defs>
<radialGradient id="paint0_radial_1_249" cx="0" cy="0" r="1" gradientUnits="userSpaceOnUse" gradientTransform="translate(19.7143 18.8371) rotate(-101.31) scale(15.2971 11.8977)">
<stop stop-color="#0768E1"/>
<stop offset="1" stop-color="#0082FB"/>
</radialGradient>
<radialGradient id="paint1_radial_1_249" cx="0" cy="0" r="1" gradientUnits="userSpaceOnUse" gradientTransform="translate(6.85714 5.97991) rotate(154.537) scale(9.96832 5.2283)">
<stop stop-color="#0768E1"/>
<stop offset="1" stop-color="#0082FB"/>
</radialGradient>
</defs>
</svg>
