<svg width="101" height="133" viewBox="0 0 101 133" fill="none" xmlns="http://www.w3.org/2000/svg">
<path d="M50.5 1L50.5 61" stroke="#006B51" stroke-linecap="round"/>
<rect x="1" y="33.5" width="99" height="99" rx="49.5" fill="#F7F7F7"/>
<path d="M16.9 78H26.78V76.4H20.4L24.86 71.86C25.4067 71.3 25.8533 70.6667 26.2 69.96C26.5467 69.2533 26.72 68.54 26.72 67.82C26.72 67.3933 26.6333 66.9467 26.46 66.48C26.2867 66.0133 26.02 65.58 25.66 65.18C25.3 64.7667 24.84 64.4333 24.28 64.18C23.72 63.9133 23.0533 63.78 22.28 63.78C21.32 63.78 20.4933 63.9933 19.8 64.42C19.12 64.8333 18.6 65.42 18.24 66.18C17.88 66.9267 17.7 67.8 17.7 68.8H19.4C19.4 68.0933 19.5133 67.4867 19.74 66.98C19.9667 66.46 20.2933 66.0667 20.72 65.8C21.16 65.52 21.68 65.38 22.28 65.38C22.7067 65.38 23.0867 65.4533 23.42 65.6C23.7533 65.7467 24.0333 65.94 24.26 66.18C24.5 66.42 24.68 66.6867 24.8 66.98C24.92 67.2733 24.98 67.5733 24.98 67.88C24.98 68.2533 24.92 68.6133 24.8 68.96C24.6933 69.2933 24.5267 69.6267 24.3 69.96C24.0867 70.28 23.8267 70.6067 23.52 70.94L16.9 78ZM30.3867 71C30.3867 70.1867 30.4667 69.44 30.6267 68.76C30.7867 68.0667 31.0201 67.4733 31.3267 66.98C31.6334 66.4733 32.0001 66.0867 32.4267 65.82C32.8667 65.54 33.3534 65.4 33.8867 65.4C34.4334 65.4 34.9201 65.54 35.3467 65.82C35.7734 66.0867 36.1401 66.4733 36.4467 66.98C36.7534 67.4733 36.9867 68.0667 37.1467 68.76C37.3067 69.44 37.3867 70.1867 37.3867 71C37.3867 71.8133 37.3067 72.5667 37.1467 73.26C36.9867 73.94 36.7534 74.5333 36.4467 75.04C36.1401 75.5333 35.7734 75.92 35.3467 76.2C34.9201 76.4667 34.4334 76.6 33.8867 76.6C33.3534 76.6 32.8667 76.4667 32.4267 76.2C32.0001 75.92 31.6334 75.5333 31.3267 75.04C31.0201 74.5333 30.7867 73.94 30.6267 73.26C30.4667 72.5667 30.3867 71.8133 30.3867 71ZM28.6867 71C28.6867 72.4 28.9067 73.64 29.3467 74.72C29.7867 75.8 30.3934 76.6533 31.1667 77.28C31.9534 77.8933 32.8601 78.2 33.8867 78.2C34.9134 78.2 35.8134 77.8933 36.5867 77.28C37.3734 76.6533 37.9867 75.8 38.4267 74.72C38.8667 73.64 39.0867 72.4 39.0867 71C39.0867 69.6 38.8667 68.36 38.4267 67.28C37.9867 66.2 37.3734 65.3533 36.5867 64.74C35.8134 64.1133 34.9134 63.8 33.8867 63.8C32.8601 63.8 31.9534 64.1133 31.1667 64.74C30.3934 65.3533 29.7867 66.2 29.3467 67.28C28.9067 68.36 28.6867 69.6 28.6867 71ZM42.3789 71C42.3789 70.1867 42.4589 69.44 42.6189 68.76C42.7789 68.0667 43.0122 67.4733 43.3189 66.98C43.6256 66.4733 43.9922 66.0867 44.4189 65.82C44.8589 65.54 45.3456 65.4 45.8789 65.4C46.4256 65.4 46.9122 65.54 47.3389 65.82C47.7656 66.0867 48.1322 66.4733 48.4389 66.98C48.7456 67.4733 48.9789 68.0667 49.1389 68.76C49.2989 69.44 49.3789 70.1867 49.3789 71C49.3789 71.8133 49.2989 72.5667 49.1389 73.26C48.9789 73.94 48.7456 74.5333 48.4389 75.04C48.1322 75.5333 47.7656 75.92 47.3389 76.2C46.9122 76.4667 46.4256 76.6 45.8789 76.6C45.3456 76.6 44.8589 76.4667 44.4189 76.2C43.9922 75.92 43.6256 75.5333 43.3189 75.04C43.0122 74.5333 42.7789 73.94 42.6189 73.26C42.4589 72.5667 42.3789 71.8133 42.3789 71ZM40.6789 71C40.6789 72.4 40.8989 73.64 41.3389 74.72C41.7789 75.8 42.3856 76.6533 43.1589 77.28C43.9456 77.8933 44.8522 78.2 45.8789 78.2C46.9056 78.2 47.8056 77.8933 48.5789 77.28C49.3656 76.6533 49.9789 75.8 50.4189 74.72C50.8589 73.64 51.0789 72.4 51.0789 71C51.0789 69.6 50.8589 68.36 50.4189 67.28C49.9789 66.2 49.3656 65.3533 48.5789 64.74C47.8056 64.1133 46.9056 63.8 45.8789 63.8C44.8522 63.8 43.9456 64.1133 43.1589 64.74C42.3856 65.3533 41.7789 66.2 41.3389 67.28C40.8989 68.36 40.6789 69.6 40.6789 71ZM60.7711 68.6C60.7711 69.24 60.6311 69.8067 60.3511 70.3C60.0844 70.7933 59.7111 71.1867 59.2311 71.48C58.7644 71.76 58.2311 71.9 57.6311 71.9C57.0311 71.9 56.4911 71.76 56.0111 71.48C55.5444 71.1867 55.1711 70.7933 54.8911 70.3C54.6244 69.8067 54.4911 69.24 54.4911 68.6C54.4911 67.96 54.6244 67.4 54.8911 66.92C55.1711 66.4267 55.5444 66.04 56.0111 65.76C56.4911 65.48 57.0311 65.34 57.6311 65.34C58.2311 65.34 58.7644 65.48 59.2311 65.76C59.7111 66.04 60.0844 66.4267 60.3511 66.92C60.6311 67.4 60.7711 67.96 60.7711 68.6ZM56.7911 78L61.5111 71.5C61.7778 71.1267 61.9911 70.6933 62.1511 70.2C62.3111 69.7067 62.3911 69.1733 62.3911 68.6C62.3911 67.64 62.1778 66.8 61.7511 66.08C61.3378 65.36 60.7711 64.8 60.0511 64.4C59.3444 64 58.5378 63.8 57.6311 63.8C56.7378 63.8 55.9311 64 55.2111 64.4C54.4911 64.8 53.9178 65.36 53.4911 66.08C53.0778 66.8 52.8711 67.64 52.8711 68.6C52.8711 69.24 52.9778 69.84 53.1911 70.4C53.4044 70.9467 53.6978 71.4267 54.0711 71.84C54.4578 72.2533 54.8978 72.5733 55.3911 72.8C55.8978 73.0267 56.4378 73.14 57.0111 73.14C57.4644 73.14 57.8644 73.0867 58.2111 72.98C58.5711 72.8733 58.8844 72.6533 59.1511 72.32L59.0311 72.22L54.6511 78H56.7911ZM70.7906 74H82.7906V72.5H70.7906V74Z" fill="#006B51"/>
<path d="M28.4 102H38.28V100.4H31.9L36.36 95.86C36.9067 95.3 37.3533 94.6667 37.7 93.96C38.0467 93.2533 38.22 92.54 38.22 91.82C38.22 91.3933 38.1333 90.9467 37.96 90.48C37.7867 90.0133 37.52 89.58 37.16 89.18C36.8 88.7667 36.34 88.4333 35.78 88.18C35.22 87.9133 34.5533 87.78 33.78 87.78C32.82 87.78 31.9933 87.9933 31.3 88.42C30.62 88.8333 30.1 89.42 29.74 90.18C29.38 90.9267 29.2 91.8 29.2 92.8H30.9C30.9 92.0933 31.0133 91.4867 31.24 90.98C31.4667 90.46 31.7933 90.0667 32.22 89.8C32.66 89.52 33.18 89.38 33.78 89.38C34.2067 89.38 34.5867 89.4533 34.92 89.6C35.2533 89.7467 35.5333 89.94 35.76 90.18C36 90.42 36.18 90.6867 36.3 90.98C36.42 91.2733 36.48 91.5733 36.48 91.88C36.48 92.2533 36.42 92.6133 36.3 92.96C36.1933 93.2933 36.0267 93.6267 35.8 93.96C35.5867 94.28 35.3267 94.6067 35.02 94.94L28.4 102ZM41.8867 95C41.8867 94.1867 41.9667 93.44 42.1267 92.76C42.2867 92.0667 42.5201 91.4733 42.8267 90.98C43.1334 90.4733 43.5001 90.0867 43.9267 89.82C44.3667 89.54 44.8534 89.4 45.3867 89.4C45.9334 89.4 46.4201 89.54 46.8467 89.82C47.2734 90.0867 47.6401 90.4733 47.9467 90.98C48.2534 91.4733 48.4867 92.0667 48.6467 92.76C48.8067 93.44 48.8867 94.1867 48.8867 95C48.8867 95.8133 48.8067 96.5667 48.6467 97.26C48.4867 97.94 48.2534 98.5333 47.9467 99.04C47.6401 99.5333 47.2734 99.92 46.8467 100.2C46.4201 100.467 45.9334 100.6 45.3867 100.6C44.8534 100.6 44.3667 100.467 43.9267 100.2C43.5001 99.92 43.1334 99.5333 42.8267 99.04C42.5201 98.5333 42.2867 97.94 42.1267 97.26C41.9667 96.5667 41.8867 95.8133 41.8867 95ZM40.1867 95C40.1867 96.4 40.4067 97.64 40.8467 98.72C41.2867 99.8 41.8934 100.653 42.6667 101.28C43.4534 101.893 44.3601 102.2 45.3867 102.2C46.4134 102.2 47.3134 101.893 48.0867 101.28C48.8734 100.653 49.4867 99.8 49.9267 98.72C50.3667 97.64 50.5867 96.4 50.5867 95C50.5867 93.6 50.3667 92.36 49.9267 91.28C49.4867 90.2 48.8734 89.3533 48.0867 88.74C47.3134 88.1133 46.4134 87.8 45.3867 87.8C44.3601 87.8 43.4534 88.1133 42.6667 88.74C41.8934 89.3533 41.2867 90.2 40.8467 91.28C40.4067 92.36 40.1867 93.6 40.1867 95ZM52.9789 90.76L56.0789 89.84V102H57.7789V87.8L52.9789 89V90.76ZM60.7828 99.2H71.4428V97.7H68.5828H68.2428H63.5828L67.5428 91.78V98.26V98.48V102H69.2428V88H68.5428L60.7828 99.2Z" fill="#006B51"/>
<rect x="1" y="33.5" width="99" height="99" rx="49.5" stroke="#006B51"/>
</svg>
