<svg width="101" height="133" viewBox="0 0 101 133" fill="none" xmlns="http://www.w3.org/2000/svg">
<path d="M50.5 1L50.5 61" stroke="#006B51" stroke-linecap="round"/>
<rect x="1" y="33.5" width="99" height="99" rx="49.5" fill="#F7F7F7"/>
<path d="M27.4 90H37.28V88.4H30.9L35.36 83.86C35.9067 83.3 36.3533 82.6667 36.7 81.96C37.0467 81.2533 37.22 80.54 37.22 79.82C37.22 79.3933 37.1333 78.9467 36.96 78.48C36.7867 78.0133 36.52 77.58 36.16 77.18C35.8 76.7667 35.34 76.4333 34.78 76.18C34.22 75.9133 33.5533 75.78 32.78 75.78C31.82 75.78 30.9933 75.9933 30.3 76.42C29.62 76.8333 29.1 77.42 28.74 78.18C28.38 78.9267 28.2 79.8 28.2 80.8H29.9C29.9 80.0933 30.0133 79.4867 30.24 78.98C30.4667 78.46 30.7933 78.0667 31.22 77.8C31.66 77.52 32.18 77.38 32.78 77.38C33.2067 77.38 33.5867 77.4533 33.92 77.6C34.2533 77.7467 34.5333 77.94 34.76 78.18C35 78.42 35.18 78.6867 35.3 78.98C35.42 79.2733 35.48 79.5733 35.48 79.88C35.48 80.2533 35.42 80.6133 35.3 80.96C35.1933 81.2933 35.0267 81.6267 34.8 81.96C34.5867 82.28 34.3267 82.6067 34.02 82.94L27.4 90ZM40.8867 83C40.8867 82.1867 40.9667 81.44 41.1267 80.76C41.2867 80.0667 41.5201 79.4733 41.8267 78.98C42.1334 78.4733 42.5001 78.0867 42.9267 77.82C43.3667 77.54 43.8534 77.4 44.3867 77.4C44.9334 77.4 45.4201 77.54 45.8467 77.82C46.2734 78.0867 46.6401 78.4733 46.9467 78.98C47.2534 79.4733 47.4867 80.0667 47.6467 80.76C47.8067 81.44 47.8867 82.1867 47.8867 83C47.8867 83.8133 47.8067 84.5667 47.6467 85.26C47.4867 85.94 47.2534 86.5333 46.9467 87.04C46.6401 87.5333 46.2734 87.92 45.8467 88.2C45.4201 88.4667 44.9334 88.6 44.3867 88.6C43.8534 88.6 43.3667 88.4667 42.9267 88.2C42.5001 87.92 42.1334 87.5333 41.8267 87.04C41.5201 86.5333 41.2867 85.94 41.1267 85.26C40.9667 84.5667 40.8867 83.8133 40.8867 83ZM39.1867 83C39.1867 84.4 39.4067 85.64 39.8467 86.72C40.2867 87.8 40.8934 88.6533 41.6667 89.28C42.4534 89.8933 43.3601 90.2 44.3867 90.2C45.4134 90.2 46.3134 89.8933 47.0867 89.28C47.8734 88.6533 48.4867 87.8 48.9267 86.72C49.3667 85.64 49.5867 84.4 49.5867 83C49.5867 81.6 49.3667 80.36 48.9267 79.28C48.4867 78.2 47.8734 77.3533 47.0867 76.74C46.3134 76.1133 45.4134 75.8 44.3867 75.8C43.3601 75.8 42.4534 76.1133 41.6667 76.74C40.8934 77.3533 40.2867 78.2 39.8467 79.28C39.4067 80.36 39.1867 81.6 39.1867 83ZM50.7789 90H60.6589V88.4H54.2789L58.7389 83.86C59.2856 83.3 59.7322 82.6667 60.0789 81.96C60.4256 81.2533 60.5989 80.54 60.5989 79.82C60.5989 79.3933 60.5122 78.9467 60.3389 78.48C60.1656 78.0133 59.8989 77.58 59.5389 77.18C59.1789 76.7667 58.7189 76.4333 58.1589 76.18C57.5989 75.9133 56.9322 75.78 56.1589 75.78C55.1989 75.78 54.3722 75.9933 53.6789 76.42C52.9989 76.8333 52.4789 77.42 52.1189 78.18C51.7589 78.9267 51.5789 79.8 51.5789 80.8H53.2789C53.2789 80.0933 53.3922 79.4867 53.6189 78.98C53.8456 78.46 54.1722 78.0667 54.5989 77.8C55.0389 77.52 55.5589 77.38 56.1589 77.38C56.5856 77.38 56.9656 77.4533 57.2989 77.6C57.6322 77.7467 57.9122 77.94 58.1389 78.18C58.3789 78.42 58.5589 78.6867 58.6789 78.98C58.7989 79.2733 58.8589 79.5733 58.8589 79.88C58.8589 80.2533 58.7989 80.6133 58.6789 80.96C58.5722 81.2933 58.4056 81.6267 58.1789 81.96C57.9656 82.28 57.7056 82.6067 57.3989 82.94L50.7789 90ZM62.1656 90H72.0456V88.4H65.6656L70.1256 83.86C70.6723 83.3 71.119 82.6667 71.4656 81.96C71.8123 81.2533 71.9856 80.54 71.9856 79.82C71.9856 79.3933 71.899 78.9467 71.7256 78.48C71.5523 78.0133 71.2856 77.58 70.9256 77.18C70.5656 76.7667 70.1056 76.4333 69.5456 76.18C68.9856 75.9133 68.319 75.78 67.5456 75.78C66.5856 75.78 65.759 75.9933 65.0656 76.42C64.3856 76.8333 63.8656 77.42 63.5056 78.18C63.1456 78.9267 62.9656 79.8 62.9656 80.8H64.6656C64.6656 80.0933 64.779 79.4867 65.0056 78.98C65.2323 78.46 65.559 78.0667 65.9856 77.8C66.4256 77.52 66.9456 77.38 67.5456 77.38C67.9723 77.38 68.3523 77.4533 68.6856 77.6C69.019 77.7467 69.299 77.94 69.5256 78.18C69.7656 78.42 69.9456 78.6867 70.0656 78.98C70.1856 79.2733 70.2456 79.5733 70.2456 79.88C70.2456 80.2533 70.1856 80.6133 70.0656 80.96C69.959 81.2933 69.7923 81.6267 69.5656 81.96C69.3523 82.28 69.0923 82.6067 68.7856 82.94L62.1656 90Z" fill="#006B51"/>
<rect x="1" y="33.5" width="99" height="99" rx="49.5" stroke="#006B51"/>
</svg>
