<svg width="101" height="133" viewBox="0 0 101 133" fill="none" xmlns="http://www.w3.org/2000/svg">
<path d="M50.5 1L50.5 61" stroke="#006B51" stroke-linecap="round"/>
<rect x="1" y="33.5" width="99" height="99" rx="49.5" fill="#F7F7F7"/>
<path d="M18.4 78H28.28V76.4H21.9L26.36 71.86C26.9067 71.3 27.3533 70.6667 27.7 69.96C28.0467 69.2533 28.22 68.54 28.22 67.82C28.22 67.3933 28.1333 66.9467 27.96 66.48C27.7867 66.0133 27.52 65.58 27.16 65.18C26.8 64.7667 26.34 64.4333 25.78 64.18C25.22 63.9133 24.5533 63.78 23.78 63.78C22.82 63.78 21.9933 63.9933 21.3 64.42C20.62 64.8333 20.1 65.42 19.74 66.18C19.38 66.9267 19.2 67.8 19.2 68.8H20.9C20.9 68.0933 21.0133 67.4867 21.24 66.98C21.4667 66.46 21.7933 66.0667 22.22 65.8C22.66 65.52 23.18 65.38 23.78 65.38C24.2067 65.38 24.5867 65.4533 24.92 65.6C25.2533 65.7467 25.5333 65.94 25.76 66.18C26 66.42 26.18 66.6867 26.3 66.98C26.42 67.2733 26.48 67.5733 26.48 67.88C26.48 68.2533 26.42 68.6133 26.3 68.96C26.1933 69.2933 26.0267 69.6267 25.8 69.96C25.5867 70.28 25.3267 70.6067 25.02 70.94L18.4 78ZM31.8867 71C31.8867 70.1867 31.9667 69.44 32.1267 68.76C32.2867 68.0667 32.5201 67.4733 32.8267 66.98C33.1334 66.4733 33.5001 66.0867 33.9267 65.82C34.3667 65.54 34.8534 65.4 35.3867 65.4C35.9334 65.4 36.4201 65.54 36.8467 65.82C37.2734 66.0867 37.6401 66.4733 37.9467 66.98C38.2534 67.4733 38.4867 68.0667 38.6467 68.76C38.8067 69.44 38.8867 70.1867 38.8867 71C38.8867 71.8133 38.8067 72.5667 38.6467 73.26C38.4867 73.94 38.2534 74.5333 37.9467 75.04C37.6401 75.5333 37.2734 75.92 36.8467 76.2C36.4201 76.4667 35.9334 76.6 35.3867 76.6C34.8534 76.6 34.3667 76.4667 33.9267 76.2C33.5001 75.92 33.1334 75.5333 32.8267 75.04C32.5201 74.5333 32.2867 73.94 32.1267 73.26C31.9667 72.5667 31.8867 71.8133 31.8867 71ZM30.1867 71C30.1867 72.4 30.4067 73.64 30.8467 74.72C31.2867 75.8 31.8934 76.6533 32.6667 77.28C33.4534 77.8933 34.3601 78.2 35.3867 78.2C36.4134 78.2 37.3134 77.8933 38.0867 77.28C38.8734 76.6533 39.4867 75.8 39.9267 74.72C40.3667 73.64 40.5867 72.4 40.5867 71C40.5867 69.6 40.3667 68.36 39.9267 67.28C39.4867 66.2 38.8734 65.3533 38.0867 64.74C37.3134 64.1133 36.4134 63.8 35.3867 63.8C34.3601 63.8 33.4534 64.1133 32.6667 64.74C31.8934 65.3533 31.2867 66.2 30.8467 67.28C30.4067 68.36 30.1867 69.6 30.1867 71ZM42.9789 66.76L46.0789 65.84V78H47.7789V63.8L42.9789 65V66.76ZM60.8628 73.4C60.8628 72.4667 60.6828 71.6467 60.3228 70.94C59.9628 70.2333 59.4628 69.68 58.8228 69.28C58.1961 68.88 57.4828 68.68 56.6828 68.68C56.3361 68.68 55.9828 68.7267 55.6228 68.82C55.2761 68.9 54.9361 69.0267 54.6028 69.2L55.5428 65.5H60.8228V64H54.2228L52.3828 71.46C52.8628 71.1267 53.2828 70.8733 53.6428 70.7C54.0161 70.5133 54.3828 70.3867 54.7428 70.32C55.1161 70.24 55.5228 70.2 55.9628 70.2C56.5628 70.2 57.0961 70.3333 57.5628 70.6C58.0428 70.8667 58.4161 71.24 58.6828 71.72C58.9628 72.2 59.1028 72.76 59.1028 73.4C59.1028 74.04 58.9761 74.6 58.7228 75.08C58.4828 75.56 58.1295 75.9333 57.6628 76.2C57.1961 76.4667 56.6295 76.6 55.9628 76.6C55.4561 76.6 54.9695 76.4933 54.5028 76.28C54.0361 76.0533 53.6228 75.7667 53.2628 75.42C52.9161 75.06 52.6361 74.68 52.4228 74.28L50.9828 75.26C51.2895 75.7933 51.6628 76.2867 52.1028 76.74C52.5561 77.18 53.0961 77.5333 53.7228 77.8C54.3628 78.0667 55.1095 78.2 55.9628 78.2C56.6428 78.2 57.2761 78.1 57.8628 77.9C58.4495 77.7 58.9695 77.4 59.4228 77C59.8761 76.6 60.2295 76.1 60.4828 75.5C60.7361 74.9 60.8628 74.2 60.8628 73.4ZM69.068 74H81.068V72.5H69.068V74Z" fill="#006B51"/>
<path d="M28.9 102H38.78V100.4H32.4L36.86 95.86C37.4067 95.3 37.8533 94.6667 38.2 93.96C38.5467 93.2533 38.72 92.54 38.72 91.82C38.72 91.3933 38.6333 90.9467 38.46 90.48C38.2867 90.0133 38.02 89.58 37.66 89.18C37.3 88.7667 36.84 88.4333 36.28 88.18C35.72 87.9133 35.0533 87.78 34.28 87.78C33.32 87.78 32.4933 87.9933 31.8 88.42C31.12 88.8333 30.6 89.42 30.24 90.18C29.88 90.9267 29.7 91.8 29.7 92.8H31.4C31.4 92.0933 31.5133 91.4867 31.74 90.98C31.9667 90.46 32.2933 90.0667 32.72 89.8C33.16 89.52 33.68 89.38 34.28 89.38C34.7067 89.38 35.0867 89.4533 35.42 89.6C35.7533 89.7467 36.0333 89.94 36.26 90.18C36.5 90.42 36.68 90.6867 36.8 90.98C36.92 91.2733 36.98 91.5733 36.98 91.88C36.98 92.2533 36.92 92.6133 36.8 92.96C36.6933 93.2933 36.5267 93.6267 36.3 93.96C36.0867 94.28 35.8267 94.6067 35.52 94.94L28.9 102ZM42.3867 95C42.3867 94.1867 42.4667 93.44 42.6267 92.76C42.7867 92.0667 43.0201 91.4733 43.3267 90.98C43.6334 90.4733 44.0001 90.0867 44.4267 89.82C44.8667 89.54 45.3534 89.4 45.8867 89.4C46.4334 89.4 46.9201 89.54 47.3467 89.82C47.7734 90.0867 48.1401 90.4733 48.4467 90.98C48.7534 91.4733 48.9867 92.0667 49.1467 92.76C49.3067 93.44 49.3867 94.1867 49.3867 95C49.3867 95.8133 49.3067 96.5667 49.1467 97.26C48.9867 97.94 48.7534 98.5333 48.4467 99.04C48.1401 99.5333 47.7734 99.92 47.3467 100.2C46.9201 100.467 46.4334 100.6 45.8867 100.6C45.3534 100.6 44.8667 100.467 44.4267 100.2C44.0001 99.92 43.6334 99.5333 43.3267 99.04C43.0201 98.5333 42.7867 97.94 42.6267 97.26C42.4667 96.5667 42.3867 95.8133 42.3867 95ZM40.6867 95C40.6867 96.4 40.9067 97.64 41.3467 98.72C41.7867 99.8 42.3934 100.653 43.1667 101.28C43.9534 101.893 44.8601 102.2 45.8867 102.2C46.9134 102.2 47.8134 101.893 48.5867 101.28C49.3734 100.653 49.9867 99.8 50.4267 98.72C50.8667 97.64 51.0867 96.4 51.0867 95C51.0867 93.6 50.8667 92.36 50.4267 91.28C49.9867 90.2 49.3734 89.3533 48.5867 88.74C47.8134 88.1133 46.9134 87.8 45.8867 87.8C44.8601 87.8 43.9534 88.1133 43.1667 88.74C42.3934 89.3533 41.7867 90.2 41.3467 91.28C40.9067 92.36 40.6867 93.6 40.6867 95ZM53.4789 90.76L56.5789 89.84V102H58.2789V87.8L53.4789 89V90.76ZM62.4828 91.38C62.4828 91.9267 62.5761 92.42 62.7628 92.86C62.9495 93.2867 63.2095 93.6533 63.5428 93.96C63.8895 94.2667 64.2961 94.5 64.7628 94.66C65.2428 94.82 65.7695 94.9 66.3428 94.9C66.9161 94.9 67.4361 94.82 67.9028 94.66C68.3828 94.5 68.7895 94.2667 69.1228 93.96C69.4695 93.6533 69.7361 93.2867 69.9228 92.86C70.1095 92.42 70.2028 91.9267 70.2028 91.38C70.2028 90.7133 70.0295 90.1133 69.6828 89.58C69.3495 89.0333 68.8895 88.6 68.3028 88.28C67.7295 87.96 67.0761 87.8 66.3428 87.8C65.6095 87.8 64.9495 87.96 64.3628 88.28C63.7895 88.6 63.3295 89.0333 62.9828 89.58C62.6495 90.1133 62.4828 90.7133 62.4828 91.38ZM64.1028 91.58C64.1028 91.14 64.1961 90.7467 64.3828 90.4C64.5828 90.0533 64.8495 89.7867 65.1828 89.6C65.5295 89.4 65.9161 89.3 66.3428 89.3C66.7828 89.3 67.1695 89.4 67.5028 89.6C67.8361 89.7867 68.0961 90.0533 68.2828 90.4C68.4828 90.7467 68.5828 91.14 68.5828 91.58C68.5828 92.02 68.4761 92.4067 68.2628 92.74C68.0628 93.0733 67.7895 93.3333 67.4428 93.52C67.1095 93.7067 66.7428 93.8 66.3428 93.8C65.9428 93.8 65.5695 93.7067 65.2228 93.52C64.8895 93.3333 64.6161 93.0733 64.4028 92.74C64.2028 92.4067 64.1028 92.02 64.1028 91.58ZM61.9828 98.2C61.9828 98.7467 62.0895 99.26 62.3028 99.74C62.5295 100.22 62.8361 100.647 63.2228 101.02C63.6228 101.393 64.0828 101.687 64.6028 101.9C65.1361 102.1 65.7161 102.2 66.3428 102.2C66.9695 102.2 67.5428 102.1 68.0628 101.9C68.5961 101.687 69.0561 101.393 69.4428 101.02C69.8428 100.647 70.1495 100.22 70.3628 99.74C70.5895 99.26 70.7028 98.7467 70.7028 98.2C70.7028 97.56 70.5828 96.9933 70.3428 96.5C70.1161 95.9933 69.7961 95.5733 69.3828 95.24C68.9828 94.8933 68.5161 94.6333 67.9828 94.46C67.4628 94.2867 66.9161 94.2 66.3428 94.2C65.7695 94.2 65.2161 94.2867 64.6828 94.46C64.1628 94.6333 63.6961 94.8933 63.2828 95.24C62.8828 95.5733 62.5628 95.9933 62.3228 96.5C62.0961 96.9933 61.9828 97.56 61.9828 98.2ZM63.6028 98C63.6028 97.4933 63.7295 97.04 63.9828 96.64C64.2495 96.2267 64.5895 95.9 65.0028 95.66C65.4295 95.42 65.8761 95.3 66.3428 95.3C66.8095 95.3 67.2495 95.42 67.6628 95.66C68.0895 95.9 68.4295 96.2267 68.6828 96.64C68.9495 97.04 69.0828 97.4933 69.0828 98C69.0828 98.5733 68.9495 99.06 68.6828 99.46C68.4295 99.86 68.0895 100.167 67.6628 100.38C67.2495 100.593 66.8095 100.7 66.3428 100.7C65.8761 100.7 65.4295 100.593 65.0028 100.38C64.5895 100.167 64.2495 99.86 63.9828 99.46C63.7295 99.06 63.6028 98.5733 63.6028 98Z" fill="#006B51"/>
<rect x="1" y="33.5" width="99" height="99" rx="49.5" stroke="#006B51"/>
</svg>
