<svg width="100" height="133" viewBox="0 0 100 133" fill="none" xmlns="http://www.w3.org/2000/svg">
<path d="M50 1L50 61" stroke="#CCCCCC" stroke-linecap="round" stroke-dasharray="10 14"/>
<rect x="0.5" y="33.5" width="99" height="99" rx="49.5" fill="#F7F7F7"/>
<path d="M26.9 90H36.78V88.4H30.4L34.86 83.86C35.4067 83.3 35.8533 82.6667 36.2 81.96C36.5467 81.2533 36.72 80.54 36.72 79.82C36.72 79.3933 36.6333 78.9467 36.46 78.48C36.2867 78.0133 36.02 77.58 35.66 77.18C35.3 76.7667 34.84 76.4333 34.28 76.18C33.72 75.9133 33.0533 75.78 32.28 75.78C31.32 75.78 30.4933 75.9933 29.8 76.42C29.12 76.8333 28.6 77.42 28.24 78.18C27.88 78.9267 27.7 79.8 27.7 80.8H29.4C29.4 80.0933 29.5133 79.4867 29.74 78.98C29.9667 78.46 30.2933 78.0667 30.72 77.8C31.16 77.52 31.68 77.38 32.28 77.38C32.7067 77.38 33.0867 77.4533 33.42 77.6C33.7533 77.7467 34.0333 77.94 34.26 78.18C34.5 78.42 34.68 78.6867 34.8 78.98C34.92 79.2733 34.98 79.5733 34.98 79.88C34.98 80.2533 34.92 80.6133 34.8 80.96C34.6933 81.2933 34.5267 81.6267 34.3 81.96C34.0867 82.28 33.8267 82.6067 33.52 82.94L26.9 90ZM40.3867 83C40.3867 82.1867 40.4667 81.44 40.6267 80.76C40.7867 80.0667 41.0201 79.4733 41.3267 78.98C41.6334 78.4733 42.0001 78.0867 42.4267 77.82C42.8667 77.54 43.3534 77.4 43.8867 77.4C44.4334 77.4 44.9201 77.54 45.3467 77.82C45.7734 78.0867 46.1401 78.4733 46.4467 78.98C46.7534 79.4733 46.9867 80.0667 47.1467 80.76C47.3067 81.44 47.3867 82.1867 47.3867 83C47.3867 83.8133 47.3067 84.5667 47.1467 85.26C46.9867 85.94 46.7534 86.5333 46.4467 87.04C46.1401 87.5333 45.7734 87.92 45.3467 88.2C44.9201 88.4667 44.4334 88.6 43.8867 88.6C43.3534 88.6 42.8667 88.4667 42.4267 88.2C42.0001 87.92 41.6334 87.5333 41.3267 87.04C41.0201 86.5333 40.7867 85.94 40.6267 85.26C40.4667 84.5667 40.3867 83.8133 40.3867 83ZM38.6867 83C38.6867 84.4 38.9067 85.64 39.3467 86.72C39.7867 87.8 40.3934 88.6533 41.1667 89.28C41.9534 89.8933 42.8601 90.2 43.8867 90.2C44.9134 90.2 45.8134 89.8933 46.5867 89.28C47.3734 88.6533 47.9867 87.8 48.4267 86.72C48.8667 85.64 49.0867 84.4 49.0867 83C49.0867 81.6 48.8667 80.36 48.4267 79.28C47.9867 78.2 47.3734 77.3533 46.5867 76.74C45.8134 76.1133 44.9134 75.8 43.8867 75.8C42.8601 75.8 41.9534 76.1133 41.1667 76.74C40.3934 77.3533 39.7867 78.2 39.3467 79.28C38.9067 80.36 38.6867 81.6 38.6867 83ZM50.2789 90H60.1589V88.4H53.7789L58.2389 83.86C58.7856 83.3 59.2322 82.6667 59.5789 81.96C59.9256 81.2533 60.0989 80.54 60.0989 79.82C60.0989 79.3933 60.0122 78.9467 59.8389 78.48C59.6656 78.0133 59.3989 77.58 59.0389 77.18C58.6789 76.7667 58.2189 76.4333 57.6589 76.18C57.0989 75.9133 56.4322 75.78 55.6589 75.78C54.6989 75.78 53.8722 75.9933 53.1789 76.42C52.4989 76.8333 51.9789 77.42 51.6189 78.18C51.2589 78.9267 51.0789 79.8 51.0789 80.8H52.7789C52.7789 80.0933 52.8922 79.4867 53.1189 78.98C53.3456 78.46 53.6722 78.0667 54.0989 77.8C54.5389 77.52 55.0589 77.38 55.6589 77.38C56.0856 77.38 56.4656 77.4533 56.7989 77.6C57.1322 77.7467 57.4122 77.94 57.6389 78.18C57.8789 78.42 58.0589 78.6867 58.1789 78.98C58.2989 79.2733 58.3589 79.5733 58.3589 79.88C58.3589 80.2533 58.2989 80.6133 58.1789 80.96C58.0722 81.2933 57.9056 81.6267 57.6789 81.96C57.4656 82.28 57.2056 82.6067 56.8989 82.94L50.2789 90ZM61.6656 90H71.5456V88.4H65.1656L69.6256 83.86C70.1723 83.3 70.619 82.6667 70.9656 81.96C71.3123 81.2533 71.4856 80.54 71.4856 79.82C71.4856 79.3933 71.399 78.9467 71.2256 78.48C71.0523 78.0133 70.7856 77.58 70.4256 77.18C70.0656 76.7667 69.6056 76.4333 69.0456 76.18C68.4856 75.9133 67.819 75.78 67.0456 75.78C66.0856 75.78 65.259 75.9933 64.5656 76.42C63.8856 76.8333 63.3656 77.42 63.0056 78.18C62.6456 78.9267 62.4656 79.8 62.4656 80.8H64.1656C64.1656 80.0933 64.279 79.4867 64.5056 78.98C64.7323 78.46 65.059 78.0667 65.4856 77.8C65.9256 77.52 66.4456 77.38 67.0456 77.38C67.4723 77.38 67.8523 77.4533 68.1856 77.6C68.519 77.7467 68.799 77.94 69.0256 78.18C69.2656 78.42 69.4456 78.6867 69.5656 78.98C69.6856 79.2733 69.7456 79.5733 69.7456 79.88C69.7456 80.2533 69.6856 80.6133 69.5656 80.96C69.459 81.2933 69.2923 81.6267 69.0656 81.96C68.8523 82.28 68.5923 82.6067 68.2856 82.94L61.6656 90Z" fill="#CCCCCC"/>
<rect x="0.5" y="33.5" width="99" height="99" rx="49.5" stroke="#CCCCCC" stroke-linecap="round" stroke-dasharray="10 14"/>
</svg>
