<svg width="100" height="133" viewBox="0 0 100 133" fill="none" xmlns="http://www.w3.org/2000/svg">
<path d="M50 1L50 61" stroke="#CCCCCC" stroke-linecap="round" stroke-dasharray="10 14"/>
<rect x="0.5" y="33.5" width="99" height="99" rx="49.5" fill="#F7F7F7"/>
<path d="M17.9 78H27.78V76.4H21.4L25.86 71.86C26.4067 71.3 26.8533 70.6667 27.2 69.96C27.5467 69.2533 27.72 68.54 27.72 67.82C27.72 67.3933 27.6333 66.9467 27.46 66.48C27.2867 66.0133 27.02 65.58 26.66 65.18C26.3 64.7667 25.84 64.4333 25.28 64.18C24.72 63.9133 24.0533 63.78 23.28 63.78C22.32 63.78 21.4933 63.9933 20.8 64.42C20.12 64.8333 19.6 65.42 19.24 66.18C18.88 66.9267 18.7 67.8 18.7 68.8H20.4C20.4 68.0933 20.5133 67.4867 20.74 66.98C20.9667 66.46 21.2933 66.0667 21.72 65.8C22.16 65.52 22.68 65.38 23.28 65.38C23.7067 65.38 24.0867 65.4533 24.42 65.6C24.7533 65.7467 25.0333 65.94 25.26 66.18C25.5 66.42 25.68 66.6867 25.8 66.98C25.92 67.2733 25.98 67.5733 25.98 67.88C25.98 68.2533 25.92 68.6133 25.8 68.96C25.6933 69.2933 25.5267 69.6267 25.3 69.96C25.0867 70.28 24.8267 70.6067 24.52 70.94L17.9 78ZM31.3867 71C31.3867 70.1867 31.4667 69.44 31.6267 68.76C31.7867 68.0667 32.0201 67.4733 32.3267 66.98C32.6334 66.4733 33.0001 66.0867 33.4267 65.82C33.8667 65.54 34.3534 65.4 34.8867 65.4C35.4334 65.4 35.9201 65.54 36.3467 65.82C36.7734 66.0867 37.1401 66.4733 37.4467 66.98C37.7534 67.4733 37.9867 68.0667 38.1467 68.76C38.3067 69.44 38.3867 70.1867 38.3867 71C38.3867 71.8133 38.3067 72.5667 38.1467 73.26C37.9867 73.94 37.7534 74.5333 37.4467 75.04C37.1401 75.5333 36.7734 75.92 36.3467 76.2C35.9201 76.4667 35.4334 76.6 34.8867 76.6C34.3534 76.6 33.8667 76.4667 33.4267 76.2C33.0001 75.92 32.6334 75.5333 32.3267 75.04C32.0201 74.5333 31.7867 73.94 31.6267 73.26C31.4667 72.5667 31.3867 71.8133 31.3867 71ZM29.6867 71C29.6867 72.4 29.9067 73.64 30.3467 74.72C30.7867 75.8 31.3934 76.6533 32.1667 77.28C32.9534 77.8933 33.8601 78.2 34.8867 78.2C35.9134 78.2 36.8134 77.8933 37.5867 77.28C38.3734 76.6533 38.9867 75.8 39.4267 74.72C39.8667 73.64 40.0867 72.4 40.0867 71C40.0867 69.6 39.8667 68.36 39.4267 67.28C38.9867 66.2 38.3734 65.3533 37.5867 64.74C36.8134 64.1133 35.9134 63.8 34.8867 63.8C33.8601 63.8 32.9534 64.1133 32.1667 64.74C31.3934 65.3533 30.7867 66.2 30.3467 67.28C29.9067 68.36 29.6867 69.6 29.6867 71ZM42.4789 66.76L45.5789 65.84V78H47.2789V63.8L42.4789 65V66.76ZM60.3628 73.4C60.3628 72.4667 60.1828 71.6467 59.8228 70.94C59.4628 70.2333 58.9628 69.68 58.3228 69.28C57.6961 68.88 56.9828 68.68 56.1828 68.68C55.8361 68.68 55.4828 68.7267 55.1228 68.82C54.7761 68.9 54.4361 69.0267 54.1028 69.2L55.0428 65.5H60.3228V64H53.7228L51.8828 71.46C52.3628 71.1267 52.7828 70.8733 53.1428 70.7C53.5161 70.5133 53.8828 70.3867 54.2428 70.32C54.6161 70.24 55.0228 70.2 55.4628 70.2C56.0628 70.2 56.5961 70.3333 57.0628 70.6C57.5428 70.8667 57.9161 71.24 58.1828 71.72C58.4628 72.2 58.6028 72.76 58.6028 73.4C58.6028 74.04 58.4761 74.6 58.2228 75.08C57.9828 75.56 57.6295 75.9333 57.1628 76.2C56.6961 76.4667 56.1295 76.6 55.4628 76.6C54.9561 76.6 54.4695 76.4933 54.0028 76.28C53.5361 76.0533 53.1228 75.7667 52.7628 75.42C52.4161 75.06 52.1361 74.68 51.9228 74.28L50.4828 75.26C50.7895 75.7933 51.1628 76.2867 51.6028 76.74C52.0561 77.18 52.5961 77.5333 53.2228 77.8C53.8628 78.0667 54.6095 78.2 55.4628 78.2C56.1428 78.2 56.7761 78.1 57.3628 77.9C57.9495 77.7 58.4695 77.4 58.9228 77C59.3761 76.6 59.7295 76.1 59.9828 75.5C60.2361 74.9 60.3628 74.2 60.3628 73.4ZM68.568 74H80.568V72.5H68.568V74Z" fill="#CCCCCC"/>
<path d="M28.4 102H38.28V100.4H31.9L36.36 95.86C36.9067 95.3 37.3533 94.6667 37.7 93.96C38.0467 93.2533 38.22 92.54 38.22 91.82C38.22 91.3933 38.1333 90.9467 37.96 90.48C37.7867 90.0133 37.52 89.58 37.16 89.18C36.8 88.7667 36.34 88.4333 35.78 88.18C35.22 87.9133 34.5533 87.78 33.78 87.78C32.82 87.78 31.9933 87.9933 31.3 88.42C30.62 88.8333 30.1 89.42 29.74 90.18C29.38 90.9267 29.2 91.8 29.2 92.8H30.9C30.9 92.0933 31.0133 91.4867 31.24 90.98C31.4667 90.46 31.7933 90.0667 32.22 89.8C32.66 89.52 33.18 89.38 33.78 89.38C34.2067 89.38 34.5867 89.4533 34.92 89.6C35.2533 89.7467 35.5333 89.94 35.76 90.18C36 90.42 36.18 90.6867 36.3 90.98C36.42 91.2733 36.48 91.5733 36.48 91.88C36.48 92.2533 36.42 92.6133 36.3 92.96C36.1933 93.2933 36.0267 93.6267 35.8 93.96C35.5867 94.28 35.3267 94.6067 35.02 94.94L28.4 102ZM41.8867 95C41.8867 94.1867 41.9667 93.44 42.1267 92.76C42.2867 92.0667 42.5201 91.4733 42.8267 90.98C43.1334 90.4733 43.5001 90.0867 43.9267 89.82C44.3667 89.54 44.8534 89.4 45.3867 89.4C45.9334 89.4 46.4201 89.54 46.8467 89.82C47.2734 90.0867 47.6401 90.4733 47.9467 90.98C48.2534 91.4733 48.4867 92.0667 48.6467 92.76C48.8067 93.44 48.8867 94.1867 48.8867 95C48.8867 95.8133 48.8067 96.5667 48.6467 97.26C48.4867 97.94 48.2534 98.5333 47.9467 99.04C47.6401 99.5333 47.2734 99.92 46.8467 100.2C46.4201 100.467 45.9334 100.6 45.3867 100.6C44.8534 100.6 44.3667 100.467 43.9267 100.2C43.5001 99.92 43.1334 99.5333 42.8267 99.04C42.5201 98.5333 42.2867 97.94 42.1267 97.26C41.9667 96.5667 41.8867 95.8133 41.8867 95ZM40.1867 95C40.1867 96.4 40.4067 97.64 40.8467 98.72C41.2867 99.8 41.8934 100.653 42.6667 101.28C43.4534 101.893 44.3601 102.2 45.3867 102.2C46.4134 102.2 47.3134 101.893 48.0867 101.28C48.8734 100.653 49.4867 99.8 49.9267 98.72C50.3667 97.64 50.5867 96.4 50.5867 95C50.5867 93.6 50.3667 92.36 49.9267 91.28C49.4867 90.2 48.8734 89.3533 48.0867 88.74C47.3134 88.1133 46.4134 87.8 45.3867 87.8C44.3601 87.8 43.4534 88.1133 42.6667 88.74C41.8934 89.3533 41.2867 90.2 40.8467 91.28C40.4067 92.36 40.1867 93.6 40.1867 95ZM52.9789 90.76L56.0789 89.84V102H57.7789V87.8L52.9789 89V90.76ZM61.9828 91.38C61.9828 91.9267 62.0761 92.42 62.2628 92.86C62.4495 93.2867 62.7095 93.6533 63.0428 93.96C63.3895 94.2667 63.7961 94.5 64.2628 94.66C64.7428 94.82 65.2695 94.9 65.8428 94.9C66.4161 94.9 66.9361 94.82 67.4028 94.66C67.8828 94.5 68.2895 94.2667 68.6228 93.96C68.9695 93.6533 69.2361 93.2867 69.4228 92.86C69.6095 92.42 69.7028 91.9267 69.7028 91.38C69.7028 90.7133 69.5295 90.1133 69.1828 89.58C68.8495 89.0333 68.3895 88.6 67.8028 88.28C67.2295 87.96 66.5761 87.8 65.8428 87.8C65.1095 87.8 64.4495 87.96 63.8628 88.28C63.2895 88.6 62.8295 89.0333 62.4828 89.58C62.1495 90.1133 61.9828 90.7133 61.9828 91.38ZM63.6028 91.58C63.6028 91.14 63.6961 90.7467 63.8828 90.4C64.0828 90.0533 64.3495 89.7867 64.6828 89.6C65.0295 89.4 65.4161 89.3 65.8428 89.3C66.2828 89.3 66.6695 89.4 67.0028 89.6C67.3361 89.7867 67.5961 90.0533 67.7828 90.4C67.9828 90.7467 68.0828 91.14 68.0828 91.58C68.0828 92.02 67.9761 92.4067 67.7628 92.74C67.5628 93.0733 67.2895 93.3333 66.9428 93.52C66.6095 93.7067 66.2428 93.8 65.8428 93.8C65.4428 93.8 65.0695 93.7067 64.7228 93.52C64.3895 93.3333 64.1161 93.0733 63.9028 92.74C63.7028 92.4067 63.6028 92.02 63.6028 91.58ZM61.4828 98.2C61.4828 98.7467 61.5895 99.26 61.8028 99.74C62.0295 100.22 62.3361 100.647 62.7228 101.02C63.1228 101.393 63.5828 101.687 64.1028 101.9C64.6361 102.1 65.2161 102.2 65.8428 102.2C66.4695 102.2 67.0428 102.1 67.5628 101.9C68.0961 101.687 68.5561 101.393 68.9428 101.02C69.3428 100.647 69.6495 100.22 69.8628 99.74C70.0895 99.26 70.2028 98.7467 70.2028 98.2C70.2028 97.56 70.0828 96.9933 69.8428 96.5C69.6161 95.9933 69.2961 95.5733 68.8828 95.24C68.4828 94.8933 68.0161 94.6333 67.4828 94.46C66.9628 94.2867 66.4161 94.2 65.8428 94.2C65.2695 94.2 64.7161 94.2867 64.1828 94.46C63.6628 94.6333 63.1961 94.8933 62.7828 95.24C62.3828 95.5733 62.0628 95.9933 61.8228 96.5C61.5961 96.9933 61.4828 97.56 61.4828 98.2ZM63.1028 98C63.1028 97.4933 63.2295 97.04 63.4828 96.64C63.7495 96.2267 64.0895 95.9 64.5028 95.66C64.9295 95.42 65.3761 95.3 65.8428 95.3C66.3095 95.3 66.7495 95.42 67.1628 95.66C67.5895 95.9 67.9295 96.2267 68.1828 96.64C68.4495 97.04 68.5828 97.4933 68.5828 98C68.5828 98.5733 68.4495 99.06 68.1828 99.46C67.9295 99.86 67.5895 100.167 67.1628 100.38C66.7495 100.593 66.3095 100.7 65.8428 100.7C65.3761 100.7 64.9295 100.593 64.5028 100.38C64.0895 100.167 63.7495 99.86 63.4828 99.46C63.2295 99.06 63.1028 98.5733 63.1028 98Z" fill="#CCCCCC"/>
<rect x="0.5" y="33.5" width="99" height="99" rx="49.5" stroke="#CCCCCC" stroke-linecap="round" stroke-dasharray="10 14"/>
</svg>
