<svg width="100" height="133" viewBox="0 0 100 133" fill="none" xmlns="http://www.w3.org/2000/svg">
<path d="M50 1L50 61" stroke="#CCCCCC" stroke-linecap="round" stroke-dasharray="10 14"/>
<rect x="0.5" y="33.5" width="99" height="99" rx="49.5" fill="#F7F7F7"/>
<path d="M17.9 78H27.78V76.4H21.4L25.86 71.86C26.4067 71.3 26.8533 70.6667 27.2 69.96C27.5467 69.2533 27.72 68.54 27.72 67.82C27.72 67.3933 27.6333 66.9467 27.46 66.48C27.2867 66.0133 27.02 65.58 26.66 65.18C26.3 64.7667 25.84 64.4333 25.28 64.18C24.72 63.9133 24.0533 63.78 23.28 63.78C22.32 63.78 21.4933 63.9933 20.8 64.42C20.12 64.8333 19.6 65.42 19.24 66.18C18.88 66.9267 18.7 67.8 18.7 68.8H20.4C20.4 68.0933 20.5133 67.4867 20.74 66.98C20.9667 66.46 21.2933 66.0667 21.72 65.8C22.16 65.52 22.68 65.38 23.28 65.38C23.7067 65.38 24.0867 65.4533 24.42 65.6C24.7533 65.7467 25.0333 65.94 25.26 66.18C25.5 66.42 25.68 66.6867 25.8 66.98C25.92 67.2733 25.98 67.5733 25.98 67.88C25.98 68.2533 25.92 68.6133 25.8 68.96C25.6933 69.2933 25.5267 69.6267 25.3 69.96C25.0867 70.28 24.8267 70.6067 24.52 70.94L17.9 78ZM31.3867 71C31.3867 70.1867 31.4667 69.44 31.6267 68.76C31.7867 68.0667 32.0201 67.4733 32.3267 66.98C32.6334 66.4733 33.0001 66.0867 33.4267 65.82C33.8667 65.54 34.3534 65.4 34.8867 65.4C35.4334 65.4 35.9201 65.54 36.3467 65.82C36.7734 66.0867 37.1401 66.4733 37.4467 66.98C37.7534 67.4733 37.9867 68.0667 38.1467 68.76C38.3067 69.44 38.3867 70.1867 38.3867 71C38.3867 71.8133 38.3067 72.5667 38.1467 73.26C37.9867 73.94 37.7534 74.5333 37.4467 75.04C37.1401 75.5333 36.7734 75.92 36.3467 76.2C35.9201 76.4667 35.4334 76.6 34.8867 76.6C34.3534 76.6 33.8667 76.4667 33.4267 76.2C33.0001 75.92 32.6334 75.5333 32.3267 75.04C32.0201 74.5333 31.7867 73.94 31.6267 73.26C31.4667 72.5667 31.3867 71.8133 31.3867 71ZM29.6867 71C29.6867 72.4 29.9067 73.64 30.3467 74.72C30.7867 75.8 31.3934 76.6533 32.1667 77.28C32.9534 77.8933 33.8601 78.2 34.8867 78.2C35.9134 78.2 36.8134 77.8933 37.5867 77.28C38.3734 76.6533 38.9867 75.8 39.4267 74.72C39.8667 73.64 40.0867 72.4 40.0867 71C40.0867 69.6 39.8667 68.36 39.4267 67.28C38.9867 66.2 38.3734 65.3533 37.5867 64.74C36.8134 64.1133 35.9134 63.8 34.8867 63.8C33.8601 63.8 32.9534 64.1133 32.1667 64.74C31.3934 65.3533 30.7867 66.2 30.3467 67.28C29.9067 68.36 29.6867 69.6 29.6867 71ZM42.4789 66.76L45.5789 65.84V78H47.2789V63.8L42.4789 65V66.76ZM58.7828 68.6C58.7828 69.24 58.6428 69.8067 58.3628 70.3C58.0961 70.7933 57.7228 71.1867 57.2428 71.48C56.7761 71.76 56.2428 71.9 55.6428 71.9C55.0428 71.9 54.5028 71.76 54.0228 71.48C53.5561 71.1867 53.1828 70.7933 52.9028 70.3C52.6361 69.8067 52.5028 69.24 52.5028 68.6C52.5028 67.96 52.6361 67.4 52.9028 66.92C53.1828 66.4267 53.5561 66.04 54.0228 65.76C54.5028 65.48 55.0428 65.34 55.6428 65.34C56.2428 65.34 56.7761 65.48 57.2428 65.76C57.7228 66.04 58.0961 66.4267 58.3628 66.92C58.6428 67.4 58.7828 67.96 58.7828 68.6ZM54.8028 78L59.5228 71.5C59.7895 71.1267 60.0028 70.6933 60.1628 70.2C60.3228 69.7067 60.4028 69.1733 60.4028 68.6C60.4028 67.64 60.1895 66.8 59.7628 66.08C59.3495 65.36 58.7828 64.8 58.0628 64.4C57.3561 64 56.5495 63.8 55.6428 63.8C54.7495 63.8 53.9428 64 53.2228 64.4C52.5028 64.8 51.9295 65.36 51.5028 66.08C51.0895 66.8 50.8828 67.64 50.8828 68.6C50.8828 69.24 50.9895 69.84 51.2028 70.4C51.4161 70.9467 51.7095 71.4267 52.0828 71.84C52.4695 72.2533 52.9095 72.5733 53.4028 72.8C53.9095 73.0267 54.4495 73.14 55.0228 73.14C55.4761 73.14 55.8761 73.0867 56.2228 72.98C56.5828 72.8733 56.8961 72.6533 57.1628 72.32L57.0428 72.22L52.6628 78H54.8028ZM68.8023 74H80.8023V72.5H68.8023V74Z" fill="#CCCCCC"/>
<path d="M28.4 102H38.28V100.4H31.9L36.36 95.86C36.9067 95.3 37.3533 94.6667 37.7 93.96C38.0467 93.2533 38.22 92.54 38.22 91.82C38.22 91.3933 38.1333 90.9467 37.96 90.48C37.7867 90.0133 37.52 89.58 37.16 89.18C36.8 88.7667 36.34 88.4333 35.78 88.18C35.22 87.9133 34.5533 87.78 33.78 87.78C32.82 87.78 31.9933 87.9933 31.3 88.42C30.62 88.8333 30.1 89.42 29.74 90.18C29.38 90.9267 29.2 91.8 29.2 92.8H30.9C30.9 92.0933 31.0133 91.4867 31.24 90.98C31.4667 90.46 31.7933 90.0667 32.22 89.8C32.66 89.52 33.18 89.38 33.78 89.38C34.2067 89.38 34.5867 89.4533 34.92 89.6C35.2533 89.7467 35.5333 89.94 35.76 90.18C36 90.42 36.18 90.6867 36.3 90.98C36.42 91.2733 36.48 91.5733 36.48 91.88C36.48 92.2533 36.42 92.6133 36.3 92.96C36.1933 93.2933 36.0267 93.6267 35.8 93.96C35.5867 94.28 35.3267 94.6067 35.02 94.94L28.4 102ZM41.8867 95C41.8867 94.1867 41.9667 93.44 42.1267 92.76C42.2867 92.0667 42.5201 91.4733 42.8267 90.98C43.1334 90.4733 43.5001 90.0867 43.9267 89.82C44.3667 89.54 44.8534 89.4 45.3867 89.4C45.9334 89.4 46.4201 89.54 46.8467 89.82C47.2734 90.0867 47.6401 90.4733 47.9467 90.98C48.2534 91.4733 48.4867 92.0667 48.6467 92.76C48.8067 93.44 48.8867 94.1867 48.8867 95C48.8867 95.8133 48.8067 96.5667 48.6467 97.26C48.4867 97.94 48.2534 98.5333 47.9467 99.04C47.6401 99.5333 47.2734 99.92 46.8467 100.2C46.4201 100.467 45.9334 100.6 45.3867 100.6C44.8534 100.6 44.3667 100.467 43.9267 100.2C43.5001 99.92 43.1334 99.5333 42.8267 99.04C42.5201 98.5333 42.2867 97.94 42.1267 97.26C41.9667 96.5667 41.8867 95.8133 41.8867 95ZM40.1867 95C40.1867 96.4 40.4067 97.64 40.8467 98.72C41.2867 99.8 41.8934 100.653 42.6667 101.28C43.4534 101.893 44.3601 102.2 45.3867 102.2C46.4134 102.2 47.3134 101.893 48.0867 101.28C48.8734 100.653 49.4867 99.8 49.9267 98.72C50.3667 97.64 50.5867 96.4 50.5867 95C50.5867 93.6 50.3667 92.36 49.9267 91.28C49.4867 90.2 48.8734 89.3533 48.0867 88.74C47.3134 88.1133 46.4134 87.8 45.3867 87.8C44.3601 87.8 43.4534 88.1133 42.6667 88.74C41.8934 89.3533 41.2867 90.2 40.8467 91.28C40.4067 92.36 40.1867 93.6 40.1867 95ZM51.7789 102H61.6589V100.4H55.2789L59.7389 95.86C60.2856 95.3 60.7322 94.6667 61.0789 93.96C61.4256 93.2533 61.5989 92.54 61.5989 91.82C61.5989 91.3933 61.5122 90.9467 61.3389 90.48C61.1656 90.0133 60.8989 89.58 60.5389 89.18C60.1789 88.7667 59.7189 88.4333 59.1589 88.18C58.5989 87.9133 57.9322 87.78 57.1589 87.78C56.1989 87.78 55.3722 87.9933 54.6789 88.42C53.9989 88.8333 53.4789 89.42 53.1189 90.18C52.7589 90.9267 52.5789 91.8 52.5789 92.8H54.2789C54.2789 92.0933 54.3922 91.4867 54.6189 90.98C54.8456 90.46 55.1722 90.0667 55.5989 89.8C56.0389 89.52 56.5589 89.38 57.1589 89.38C57.5856 89.38 57.9656 89.4533 58.2989 89.6C58.6322 89.7467 58.9122 89.94 59.1389 90.18C59.3789 90.42 59.5589 90.6867 59.6789 90.98C59.7989 91.2733 59.8589 91.5733 59.8589 91.88C59.8589 92.2533 59.7989 92.6133 59.6789 92.96C59.5722 93.2933 59.4056 93.6267 59.1789 93.96C58.9656 94.28 58.7056 94.6067 58.3989 94.94L51.7789 102ZM64.3656 90.76L67.4656 89.84V102H69.1656V87.8L64.3656 89V90.76Z" fill="#CCCCCC"/>
<rect x="0.5" y="33.5" width="99" height="99" rx="49.5" stroke="#CCCCCC" stroke-linecap="round" stroke-dasharray="10 14"/>
</svg>
