<svg width="100" height="133" viewBox="0 0 100 133" fill="none" xmlns="http://www.w3.org/2000/svg">
<path d="M50 1L50 61" stroke="#CCCCCC" stroke-linecap="round" stroke-dasharray="10 14"/>
<rect x="0.5" y="33.5" width="99" height="99" rx="49.5" fill="#F7F7F7"/>
<path d="M16.4 78H26.28V76.4H19.9L24.36 71.86C24.9067 71.3 25.3533 70.6667 25.7 69.96C26.0467 69.2533 26.22 68.54 26.22 67.82C26.22 67.3933 26.1333 66.9467 25.96 66.48C25.7867 66.0133 25.52 65.58 25.16 65.18C24.8 64.7667 24.34 64.4333 23.78 64.18C23.22 63.9133 22.5533 63.78 21.78 63.78C20.82 63.78 19.9933 63.9933 19.3 64.42C18.62 64.8333 18.1 65.42 17.74 66.18C17.38 66.9267 17.2 67.8 17.2 68.8H18.9C18.9 68.0933 19.0133 67.4867 19.24 66.98C19.4667 66.46 19.7933 66.0667 20.22 65.8C20.66 65.52 21.18 65.38 21.78 65.38C22.2067 65.38 22.5867 65.4533 22.92 65.6C23.2533 65.7467 23.5333 65.94 23.76 66.18C24 66.42 24.18 66.6867 24.3 66.98C24.42 67.2733 24.48 67.5733 24.48 67.88C24.48 68.2533 24.42 68.6133 24.3 68.96C24.1933 69.2933 24.0267 69.6267 23.8 69.96C23.5867 70.28 23.3267 70.6067 23.02 70.94L16.4 78ZM29.8867 71C29.8867 70.1867 29.9667 69.44 30.1267 68.76C30.2867 68.0667 30.5201 67.4733 30.8267 66.98C31.1334 66.4733 31.5001 66.0867 31.9267 65.82C32.3667 65.54 32.8534 65.4 33.3867 65.4C33.9334 65.4 34.4201 65.54 34.8467 65.82C35.2734 66.0867 35.6401 66.4733 35.9467 66.98C36.2534 67.4733 36.4867 68.0667 36.6467 68.76C36.8067 69.44 36.8867 70.1867 36.8867 71C36.8867 71.8133 36.8067 72.5667 36.6467 73.26C36.4867 73.94 36.2534 74.5333 35.9467 75.04C35.6401 75.5333 35.2734 75.92 34.8467 76.2C34.4201 76.4667 33.9334 76.6 33.3867 76.6C32.8534 76.6 32.3667 76.4667 31.9267 76.2C31.5001 75.92 31.1334 75.5333 30.8267 75.04C30.5201 74.5333 30.2867 73.94 30.1267 73.26C29.9667 72.5667 29.8867 71.8133 29.8867 71ZM28.1867 71C28.1867 72.4 28.4067 73.64 28.8467 74.72C29.2867 75.8 29.8934 76.6533 30.6667 77.28C31.4534 77.8933 32.3601 78.2 33.3867 78.2C34.4134 78.2 35.3134 77.8933 36.0867 77.28C36.8734 76.6533 37.4867 75.8 37.9267 74.72C38.3667 73.64 38.5867 72.4 38.5867 71C38.5867 69.6 38.3667 68.36 37.9267 67.28C37.4867 66.2 36.8734 65.3533 36.0867 64.74C35.3134 64.1133 34.4134 63.8 33.3867 63.8C32.3601 63.8 31.4534 64.1133 30.6667 64.74C29.8934 65.3533 29.2867 66.2 28.8467 67.28C28.4067 68.36 28.1867 69.6 28.1867 71ZM41.8789 71C41.8789 70.1867 41.9589 69.44 42.1189 68.76C42.2789 68.0667 42.5122 67.4733 42.8189 66.98C43.1256 66.4733 43.4922 66.0867 43.9189 65.82C44.3589 65.54 44.8456 65.4 45.3789 65.4C45.9256 65.4 46.4122 65.54 46.8389 65.82C47.2656 66.0867 47.6322 66.4733 47.9389 66.98C48.2456 67.4733 48.4789 68.0667 48.6389 68.76C48.7989 69.44 48.8789 70.1867 48.8789 71C48.8789 71.8133 48.7989 72.5667 48.6389 73.26C48.4789 73.94 48.2456 74.5333 47.9389 75.04C47.6322 75.5333 47.2656 75.92 46.8389 76.2C46.4122 76.4667 45.9256 76.6 45.3789 76.6C44.8456 76.6 44.3589 76.4667 43.9189 76.2C43.4922 75.92 43.1256 75.5333 42.8189 75.04C42.5122 74.5333 42.2789 73.94 42.1189 73.26C41.9589 72.5667 41.8789 71.8133 41.8789 71ZM40.1789 71C40.1789 72.4 40.3989 73.64 40.8389 74.72C41.2789 75.8 41.8856 76.6533 42.6589 77.28C43.4456 77.8933 44.3522 78.2 45.3789 78.2C46.4056 78.2 47.3056 77.8933 48.0789 77.28C48.8656 76.6533 49.4789 75.8 49.9189 74.72C50.3589 73.64 50.5789 72.4 50.5789 71C50.5789 69.6 50.3589 68.36 49.9189 67.28C49.4789 66.2 48.8656 65.3533 48.0789 64.74C47.3056 64.1133 46.4056 63.8 45.3789 63.8C44.3522 63.8 43.4456 64.1133 42.6589 64.74C41.8856 65.3533 41.2789 66.2 40.8389 67.28C40.3989 68.36 40.1789 69.6 40.1789 71ZM60.2711 68.6C60.2711 69.24 60.1311 69.8067 59.8511 70.3C59.5844 70.7933 59.2111 71.1867 58.7311 71.48C58.2644 71.76 57.7311 71.9 57.1311 71.9C56.5311 71.9 55.9911 71.76 55.5111 71.48C55.0444 71.1867 54.6711 70.7933 54.3911 70.3C54.1244 69.8067 53.9911 69.24 53.9911 68.6C53.9911 67.96 54.1244 67.4 54.3911 66.92C54.6711 66.4267 55.0444 66.04 55.5111 65.76C55.9911 65.48 56.5311 65.34 57.1311 65.34C57.7311 65.34 58.2644 65.48 58.7311 65.76C59.2111 66.04 59.5844 66.4267 59.8511 66.92C60.1311 67.4 60.2711 67.96 60.2711 68.6ZM56.2911 78L61.0111 71.5C61.2778 71.1267 61.4911 70.6933 61.6511 70.2C61.8111 69.7067 61.8911 69.1733 61.8911 68.6C61.8911 67.64 61.6778 66.8 61.2511 66.08C60.8378 65.36 60.2711 64.8 59.5511 64.4C58.8444 64 58.0378 63.8 57.1311 63.8C56.2378 63.8 55.4311 64 54.7111 64.4C53.9911 64.8 53.4178 65.36 52.9911 66.08C52.5778 66.8 52.3711 67.64 52.3711 68.6C52.3711 69.24 52.4778 69.84 52.6911 70.4C52.9044 70.9467 53.1978 71.4267 53.5711 71.84C53.9578 72.2533 54.3978 72.5733 54.8911 72.8C55.3978 73.0267 55.9378 73.14 56.5111 73.14C56.9644 73.14 57.3644 73.0867 57.7111 72.98C58.0711 72.8733 58.3844 72.6533 58.6511 72.32L58.5311 72.22L54.1511 78H56.2911ZM70.2906 74H82.2906V72.5H70.2906V74Z" fill="#CCCCCC"/>
<path d="M27.9 102H37.78V100.4H31.4L35.86 95.86C36.4067 95.3 36.8533 94.6667 37.2 93.96C37.5467 93.2533 37.72 92.54 37.72 91.82C37.72 91.3933 37.6333 90.9467 37.46 90.48C37.2867 90.0133 37.02 89.58 36.66 89.18C36.3 88.7667 35.84 88.4333 35.28 88.18C34.72 87.9133 34.0533 87.78 33.28 87.78C32.32 87.78 31.4933 87.9933 30.8 88.42C30.12 88.8333 29.6 89.42 29.24 90.18C28.88 90.9267 28.7 91.8 28.7 92.8H30.4C30.4 92.0933 30.5133 91.4867 30.74 90.98C30.9667 90.46 31.2933 90.0667 31.72 89.8C32.16 89.52 32.68 89.38 33.28 89.38C33.7067 89.38 34.0867 89.4533 34.42 89.6C34.7533 89.7467 35.0333 89.94 35.26 90.18C35.5 90.42 35.68 90.6867 35.8 90.98C35.92 91.2733 35.98 91.5733 35.98 91.88C35.98 92.2533 35.92 92.6133 35.8 92.96C35.6933 93.2933 35.5267 93.6267 35.3 93.96C35.0867 94.28 34.8267 94.6067 34.52 94.94L27.9 102ZM41.3867 95C41.3867 94.1867 41.4667 93.44 41.6267 92.76C41.7867 92.0667 42.0201 91.4733 42.3267 90.98C42.6334 90.4733 43.0001 90.0867 43.4267 89.82C43.8667 89.54 44.3534 89.4 44.8867 89.4C45.4334 89.4 45.9201 89.54 46.3467 89.82C46.7734 90.0867 47.1401 90.4733 47.4467 90.98C47.7534 91.4733 47.9867 92.0667 48.1467 92.76C48.3067 93.44 48.3867 94.1867 48.3867 95C48.3867 95.8133 48.3067 96.5667 48.1467 97.26C47.9867 97.94 47.7534 98.5333 47.4467 99.04C47.1401 99.5333 46.7734 99.92 46.3467 100.2C45.9201 100.467 45.4334 100.6 44.8867 100.6C44.3534 100.6 43.8667 100.467 43.4267 100.2C43.0001 99.92 42.6334 99.5333 42.3267 99.04C42.0201 98.5333 41.7867 97.94 41.6267 97.26C41.4667 96.5667 41.3867 95.8133 41.3867 95ZM39.6867 95C39.6867 96.4 39.9067 97.64 40.3467 98.72C40.7867 99.8 41.3934 100.653 42.1667 101.28C42.9534 101.893 43.8601 102.2 44.8867 102.2C45.9134 102.2 46.8134 101.893 47.5867 101.28C48.3734 100.653 48.9867 99.8 49.4267 98.72C49.8667 97.64 50.0867 96.4 50.0867 95C50.0867 93.6 49.8667 92.36 49.4267 91.28C48.9867 90.2 48.3734 89.3533 47.5867 88.74C46.8134 88.1133 45.9134 87.8 44.8867 87.8C43.8601 87.8 42.9534 88.1133 42.1667 88.74C41.3934 89.3533 40.7867 90.2 40.3467 91.28C39.9067 92.36 39.6867 93.6 39.6867 95ZM52.4789 90.76L55.5789 89.84V102H57.2789V87.8L52.4789 89V90.76ZM60.2828 99.2H70.9428V97.7H68.0828H67.7428H63.0828L67.0428 91.78V98.26V98.48V102H68.7428V88H68.0428L60.2828 99.2Z" fill="#CCCCCC"/>
<rect x="0.5" y="33.5" width="99" height="99" rx="49.5" stroke="#CCCCCC" stroke-linecap="round" stroke-dasharray="10 14"/>
</svg>
